<svg width="208" height="139" viewBox="0 0 208 139" fill="none" xmlns="http://www.w3.org/2000/svg">
<path d="M207.985 116.397H25.1964V138.035H207.985V116.397Z" fill="#37474F"/>
<path d="M68.5096 116.397H61.0481V138.035H68.5096V116.397Z" fill="#455A64"/>
<path d="M186.474 116.397H168.621V138.035H186.474V116.397Z" fill="#455A64"/>
<path d="M103.015 122.148L98.6469 127.826C98.6047 127.888 98.5478 127.939 98.481 127.974C98.4143 128.009 98.34 128.027 98.2647 128.026C98.1861 128.032 98.1074 128.016 98.0369 127.981C97.9665 127.946 97.9068 127.892 97.8644 127.826L93.4966 122.166V132.666C93.4943 132.726 93.4802 132.785 93.4551 132.839C93.4301 132.894 93.3946 132.942 93.3506 132.983C93.3067 133.024 93.2551 133.055 93.199 133.076C93.1429 133.096 93.0832 133.106 93.0235 133.103C92.9009 133.108 92.7812 133.066 92.6895 132.984C92.5979 132.903 92.5414 132.789 92.5321 132.666V120.819C92.5356 120.75 92.5555 120.682 92.5903 120.622C92.6252 120.562 92.6738 120.511 92.7323 120.473C92.8393 120.409 92.9657 120.384 93.089 120.404C93.2123 120.424 93.3245 120.488 93.4056 120.582L98.2647 126.897L103.087 120.582C103.169 120.488 103.281 120.424 103.404 120.404C103.527 120.384 103.654 120.409 103.761 120.473L103.888 120.619C103.903 120.697 103.903 120.777 103.888 120.855V132.703C103.886 132.763 103.872 132.821 103.847 132.876C103.822 132.93 103.786 132.979 103.742 133.019C103.698 133.06 103.647 133.091 103.591 133.112C103.534 133.133 103.475 133.142 103.415 133.14C103.355 133.142 103.296 133.133 103.239 133.112C103.183 133.091 103.132 133.06 103.088 133.019C103.044 132.979 103.008 132.93 102.983 132.876C102.958 132.821 102.944 132.763 102.942 132.703L103.015 122.148Z" fill="white"/>
<path d="M115.135 129.791H108.911L107.71 132.812C107.673 132.901 107.609 132.977 107.528 133.029C107.447 133.081 107.351 133.107 107.255 133.103H107.091C107.033 133.085 106.98 133.055 106.935 133.015C106.889 132.976 106.852 132.927 106.827 132.872C106.801 132.817 106.787 132.758 106.786 132.697C106.784 132.637 106.795 132.577 106.818 132.521L111.55 120.655C111.596 120.571 111.665 120.501 111.748 120.453C111.832 120.405 111.927 120.38 112.023 120.382C112.117 120.377 112.211 120.4 112.292 120.449C112.373 120.498 112.438 120.569 112.478 120.655L117.228 132.521C117.27 132.632 117.267 132.755 117.219 132.864C117.171 132.973 117.083 133.059 116.973 133.103H116.791C116.695 133.102 116.602 133.074 116.522 133.023C116.441 132.971 116.377 132.898 116.336 132.812L115.135 129.791ZM109.257 128.899H114.716L111.968 122.02L109.257 128.899Z" fill="white"/>
<path d="M121.759 121.183H117.646C117.58 121.196 117.512 121.195 117.447 121.179C117.381 121.163 117.32 121.132 117.268 121.089C117.216 121.047 117.174 120.993 117.145 120.932C117.116 120.871 117.101 120.805 117.101 120.737C117.101 120.67 117.116 120.603 117.145 120.542C117.174 120.481 117.216 120.428 117.268 120.385C117.32 120.342 117.381 120.312 117.447 120.295C117.512 120.279 117.58 120.278 117.646 120.291H126.746C126.812 120.278 126.88 120.279 126.945 120.295C127.011 120.312 127.072 120.342 127.124 120.385C127.176 120.428 127.218 120.481 127.247 120.542C127.276 120.603 127.291 120.67 127.291 120.737C127.291 120.805 127.276 120.871 127.247 120.932C127.218 120.993 127.176 121.047 127.124 121.089C127.072 121.132 127.011 121.163 126.945 121.179C126.88 121.195 126.812 121.196 126.746 121.183H122.633V132.648C122.633 132.774 122.583 132.894 122.494 132.983C122.405 133.072 122.285 133.121 122.16 133.121C122.034 133.121 121.914 133.072 121.825 132.983C121.736 132.894 121.686 132.774 121.686 132.648L121.759 121.183Z" fill="white"/>
<path d="M138.903 127.152H131.896V132.612C131.887 132.734 131.83 132.848 131.739 132.93C131.647 133.011 131.527 133.054 131.405 133.049C131.345 133.051 131.285 133.042 131.229 133.021C131.173 133 131.121 132.969 131.078 132.928C131.034 132.888 130.998 132.839 130.973 132.785C130.948 132.73 130.934 132.672 130.932 132.612V120.692C130.934 120.632 130.948 120.573 130.973 120.519C130.998 120.465 131.034 120.416 131.078 120.375C131.121 120.335 131.173 120.303 131.229 120.283C131.285 120.262 131.345 120.252 131.405 120.255C131.527 120.25 131.647 120.293 131.739 120.374C131.83 120.456 131.887 120.569 131.896 120.692V126.151H138.903V120.692C138.905 120.632 138.919 120.573 138.944 120.519C138.969 120.465 139.005 120.416 139.049 120.375C139.093 120.335 139.144 120.303 139.2 120.283C139.256 120.262 139.316 120.252 139.376 120.255C139.498 120.25 139.618 120.293 139.71 120.374C139.801 120.456 139.858 120.569 139.867 120.692V132.612C139.858 132.734 139.801 132.848 139.71 132.93C139.618 133.011 139.498 133.054 139.376 133.049C139.316 133.051 139.256 133.042 139.2 133.021C139.144 133 139.093 132.969 139.049 132.928C139.005 132.888 138.969 132.839 138.944 132.785C138.919 132.73 138.905 132.672 138.903 132.612V127.152Z" fill="white"/>
<path d="M193.353 0.0155029H10.5647V27.896H193.353V0.0155029Z" fill="#8EA250"/>
<path d="M98.9925 18.287C99.0736 18.2102 99.1811 18.1675 99.2928 18.1675C99.4045 18.1675 99.512 18.2102 99.5931 18.287C100.878 19.2875 102.443 19.8603 104.07 19.9249C105.132 19.9512 106.178 19.6597 107.073 19.0878C107.4 18.9023 107.678 18.6395 107.881 18.3224C108.084 18.0052 108.206 17.6432 108.237 17.2679C108.241 16.8912 108.138 16.5212 107.942 16.1996C107.746 15.878 107.464 15.6177 107.127 15.448C106.149 14.915 105.082 14.5636 103.979 14.4107C102.847 14.2619 101.753 13.8975 100.758 13.337C100.348 13.1198 100.003 12.7986 99.757 12.4056C99.511 12.0127 99.3728 11.5619 99.3565 11.0985C99.3777 10.6148 99.5184 10.1438 99.7662 9.7278C100.014 9.31177 100.361 8.96366 100.776 8.71451C101.752 8.07055 102.901 7.74031 104.07 7.76813C105.587 7.84402 107.049 8.36285 108.274 9.26045C108.32 9.28831 108.36 9.32528 108.392 9.36908C108.424 9.41289 108.446 9.4626 108.458 9.51531C108.47 9.56803 108.471 9.62261 108.461 9.67576C108.452 9.72892 108.431 9.77955 108.401 9.82461C108.336 9.91268 108.239 9.97282 108.131 9.99306C108.024 10.0133 107.912 9.99213 107.819 9.9338C106.724 9.1344 105.423 8.66691 104.07 8.5871C103.088 8.5681 102.121 8.83351 101.286 9.35142C100.966 9.53782 100.7 9.80299 100.512 10.1216C100.324 10.4401 100.22 10.8015 100.212 11.1713C100.224 11.4999 100.326 11.819 100.505 12.0946C100.685 12.3702 100.936 12.592 101.231 12.7364C102.133 13.2373 103.12 13.5644 104.143 13.701C105.365 13.863 106.545 14.2584 107.619 14.8657C108.063 15.0984 108.437 15.4454 108.703 15.8708C108.968 16.2963 109.115 16.7848 109.129 17.2861C109.099 17.8048 108.942 18.3081 108.672 18.7522C108.403 19.1963 108.028 19.5676 107.582 19.8339C106.542 20.5219 105.317 20.8773 104.07 20.8531C102.248 20.7775 100.494 20.142 99.0471 19.0332C98.9601 19.0215 98.8798 18.9803 98.8196 18.9164C98.7595 18.8525 98.7231 18.7698 98.7167 18.6823C98.7103 18.5948 98.7342 18.5077 98.7845 18.4357C98.8347 18.3637 98.9081 18.3112 98.9925 18.287Z" fill="white"/>
<path d="M119.102 7.69539C120.684 7.68864 122.226 8.18584 123.506 9.11489C123.552 9.15419 123.589 9.20297 123.615 9.25796C123.64 9.31294 123.653 9.37279 123.653 9.43335C123.653 9.4939 123.64 9.55375 123.615 9.60874C123.589 9.66372 123.552 9.71251 123.506 9.7518C123.431 9.84954 123.32 9.9138 123.197 9.9308C123.075 9.94781 122.951 9.91625 122.851 9.84283C121.739 9.03808 120.402 8.605 119.029 8.60533C118.258 8.543 117.482 8.64113 116.75 8.89363C116.018 9.14612 115.347 9.54748 114.778 10.0724C114.209 10.5973 113.754 11.2343 113.444 11.9434C113.133 12.6525 112.973 13.4182 112.973 14.1923C112.973 14.9664 113.133 15.7322 113.444 16.4413C113.754 17.1504 114.209 17.7874 114.778 18.3123C115.347 18.8372 116.018 19.2385 116.75 19.491C117.482 19.7435 118.258 19.8417 119.029 19.7794C120.394 19.8022 121.727 19.3665 122.815 18.5419C122.866 18.5036 122.924 18.476 122.986 18.4608C123.048 18.4455 123.112 18.4429 123.175 18.4531C123.238 18.4633 123.298 18.4861 123.352 18.5201C123.406 18.5541 123.452 18.5986 123.488 18.651C123.537 18.6884 123.577 18.7366 123.604 18.7918C123.632 18.8471 123.646 18.9079 123.646 18.9695C123.646 19.0311 123.632 19.092 123.604 19.1472C123.577 19.2025 123.537 19.2507 123.488 19.288C122.207 20.2117 120.664 20.7026 119.084 20.6893C118.19 20.7563 117.292 20.638 116.445 20.3418C115.599 20.0457 114.823 19.5781 114.166 18.9682C113.509 18.3584 112.984 17.6194 112.626 16.7976C112.267 15.9758 112.082 15.0889 112.082 14.1923C112.082 13.2957 112.267 12.4088 112.626 11.587C112.984 10.7652 113.509 10.0263 114.166 9.41646C114.823 8.80662 115.599 8.33898 116.445 8.04283C117.292 7.74669 118.19 7.62842 119.084 7.69539H119.102Z" fill="white"/>
<path d="M127.765 8.35051C127.77 8.22819 127.822 8.11244 127.91 8.02761C127.998 7.94277 128.116 7.89545 128.238 7.89554C128.3 7.8931 128.362 7.90292 128.421 7.92447C128.479 7.94603 128.532 7.97891 128.578 8.02116C128.624 8.06342 128.661 8.11427 128.687 8.17078C128.713 8.2273 128.727 8.28835 128.729 8.35051V20.2707C128.72 20.393 128.664 20.5069 128.572 20.5884C128.48 20.6699 128.361 20.7126 128.238 20.7075C128.178 20.7099 128.119 20.7005 128.063 20.6799C128.006 20.6593 127.955 20.6278 127.911 20.5872C127.867 20.5466 127.831 20.4978 127.806 20.4435C127.781 20.3892 127.767 20.3305 127.765 20.2707V8.35051Z" fill="white"/>
<path d="M133.57 8.35051C133.575 8.2282 133.627 8.11245 133.715 8.02761C133.803 7.94277 133.921 7.89545 134.043 7.89554H141.068C141.189 7.89554 141.304 7.94345 141.39 8.02877C141.475 8.1141 141.523 8.22984 141.523 8.35051C141.523 8.47117 141.475 8.58692 141.39 8.67224C141.304 8.75757 141.189 8.80548 141.068 8.80548H134.498V13.8101H140.213C140.279 13.7967 140.347 13.7982 140.413 13.8144C140.478 13.8306 140.539 13.8611 140.591 13.9037C140.643 13.9464 140.686 14.0001 140.714 14.0611C140.743 14.122 140.758 14.1886 140.758 14.256C140.758 14.3234 140.743 14.39 140.714 14.4509C140.686 14.5119 140.643 14.5656 140.591 14.6083C140.539 14.651 140.478 14.6815 140.413 14.6977C140.347 14.7139 140.279 14.7153 140.213 14.7019H134.498V19.743H141.032C141.094 19.7402 141.156 19.7506 141.213 19.7736C141.271 19.7967 141.323 19.8318 141.366 19.8765C141.409 19.9213 141.442 19.9748 141.463 20.0333C141.484 20.0919 141.492 20.1542 141.487 20.2161C141.487 20.275 141.475 20.3334 141.452 20.3876C141.429 20.4418 141.395 20.4908 141.352 20.5316C141.31 20.5724 141.26 20.6042 141.204 20.625C141.149 20.6459 141.091 20.6554 141.032 20.6529H133.971C133.856 20.6484 133.748 20.601 133.667 20.52C133.586 20.4391 133.538 20.3305 133.534 20.2161L133.57 8.35051Z" fill="white"/>
<path d="M146.127 9.77004V20.2526C146.127 20.3781 146.078 20.4984 145.989 20.5871C145.9 20.6759 145.78 20.7257 145.654 20.7257C145.529 20.7257 145.408 20.6759 145.32 20.5871C145.231 20.4984 145.181 20.3781 145.181 20.2526V8.51432C145.153 8.42109 145.155 8.3213 145.188 8.22957C145.221 8.13785 145.282 8.05902 145.363 8.00475C145.466 7.93768 145.591 7.91167 145.712 7.93189C145.833 7.9521 145.943 8.01706 146.018 8.11394L154.299 18.8694V8.45972C154.303 8.3405 154.353 8.22736 154.437 8.14299C154.521 8.05862 154.634 8.00926 154.754 8.00475C154.878 8.00441 154.998 8.05118 155.089 8.1356C155.18 8.22002 155.236 8.33581 155.245 8.45972V20.2526C155.236 20.3749 155.179 20.4887 155.088 20.5702C154.996 20.6517 154.876 20.6944 154.754 20.6893C154.685 20.6915 154.616 20.6778 154.553 20.6494C154.49 20.6211 154.434 20.5787 154.39 20.5255L146.127 9.77004Z" fill="white"/>
<path d="M166.638 7.69539C168.225 7.68856 169.773 8.18558 171.06 9.11489C171.103 9.15574 171.138 9.20507 171.162 9.25985C171.185 9.31462 171.198 9.37366 171.198 9.43335C171.198 9.49304 171.185 9.55207 171.162 9.60685C171.138 9.66163 171.103 9.71096 171.06 9.7518C170.984 9.84954 170.873 9.9138 170.751 9.9308C170.628 9.94781 170.504 9.91625 170.405 9.84283C169.287 9.03556 167.943 8.6024 166.565 8.60533C165.793 8.543 165.017 8.64113 164.285 8.89363C163.553 9.14612 162.882 9.54748 162.313 10.0724C161.744 10.5973 161.29 11.2343 160.979 11.9434C160.669 12.6525 160.508 13.4182 160.508 14.1923C160.508 14.9664 160.669 15.7322 160.979 16.4413C161.29 17.1504 161.744 17.7874 162.313 18.3123C162.882 18.8372 163.553 19.2385 164.285 19.491C165.017 19.7435 165.793 19.8417 166.565 19.7794C167.93 19.8079 169.265 19.3716 170.35 18.5419C170.457 18.4683 170.589 18.4386 170.718 18.4589C170.846 18.4792 170.962 18.5479 171.042 18.651C171.088 18.6903 171.125 18.7392 171.15 18.7942C171.175 18.8491 171.189 18.9089 171.189 18.9695C171.189 19.0301 171.175 19.0899 171.15 19.1449C171.125 19.1999 171.088 19.2487 171.042 19.288C169.753 20.212 168.205 20.7027 166.619 20.6893C165.725 20.7563 164.827 20.638 163.981 20.3418C163.134 20.0457 162.358 19.5781 161.701 18.9682C161.044 18.3584 160.52 17.6194 160.161 16.7976C159.803 15.9758 159.618 15.0889 159.618 14.1923C159.618 13.2957 159.803 12.4088 160.161 11.587C160.52 10.7652 161.044 10.0263 161.701 9.41646C162.358 8.80662 163.134 8.33898 163.981 8.04283C164.827 7.74669 165.725 7.62842 166.619 7.69539H166.638Z" fill="white"/>
<path d="M175.173 8.35051C175.177 8.2282 175.229 8.11245 175.318 8.02761C175.406 7.94277 175.524 7.89545 175.646 7.89554H182.671C182.791 7.89554 182.907 7.94345 182.992 8.02877C183.078 8.1141 183.126 8.22984 183.126 8.35051C183.126 8.47117 183.078 8.58692 182.992 8.67224C182.907 8.75757 182.791 8.80548 182.671 8.80548H176.137V13.8101H181.815C181.881 13.7967 181.95 13.7982 182.015 13.8144C182.081 13.8306 182.142 13.8611 182.194 13.9037C182.246 13.9464 182.288 14.0001 182.317 14.0611C182.346 14.122 182.361 14.1886 182.361 14.256C182.361 14.3234 182.346 14.39 182.317 14.4509C182.288 14.5119 182.246 14.5656 182.194 14.6083C182.142 14.651 182.081 14.6815 182.015 14.6977C181.95 14.7139 181.881 14.7153 181.815 14.7019H176.101V19.743H182.634C182.696 19.7402 182.758 19.7506 182.816 19.7736C182.874 19.7967 182.926 19.8318 182.969 19.8765C183.012 19.9213 183.045 19.9748 183.066 20.0333C183.086 20.0919 183.094 20.1542 183.089 20.2161C183.089 20.275 183.077 20.3334 183.054 20.3876C183.031 20.4418 182.997 20.4908 182.955 20.5316C182.912 20.5724 182.862 20.6042 182.807 20.625C182.752 20.6459 182.693 20.6554 182.634 20.6529H175.573C175.459 20.6484 175.35 20.601 175.269 20.52C175.188 20.4391 175.141 20.3305 175.136 20.2161L175.173 8.35051Z" fill="white"/>
<path d="M71.8764 0.0155029H25.9426V27.896H71.8764V0.0155029Z" fill="#455A64"/>
<path d="M63.2503 3.89178H34.5872V8.78726H63.2503V3.89178Z" fill="#8EA250"/>
<path d="M63.2503 11.4989H34.5872V16.3944H63.2503V11.4989Z" fill="#8EA250"/>
<path d="M63.2503 19.0878H34.5872V23.9833H63.2503V19.0878Z" fill="#8EA250"/>
<path d="M204.218 27.8778H17.5166V56.4681H204.218V27.8778Z" fill="#37474F"/>
<path d="M171.187 37.1592H126.345V47.2049H171.187V37.1592Z" fill="#8EA250"/>
<path d="M193.681 42.1821C193.776 43.3718 193.51 44.5626 192.918 45.5989C192.326 46.6352 191.435 47.4687 190.362 47.9907C189.288 48.5126 188.082 48.6987 186.902 48.5246C185.721 48.3505 184.62 47.8242 183.743 47.0147C182.866 46.2051 182.253 45.1499 181.986 43.9868C181.718 42.8237 181.807 41.6068 182.241 40.4952C182.676 39.3836 183.436 38.4288 184.421 37.7558C185.407 37.0827 186.573 36.7226 187.766 36.7224C189.271 36.6777 190.732 37.2243 191.838 38.245C192.944 39.2657 193.605 40.6791 193.681 42.1821Z" fill="#8EA250"/>
<path d="M34.9329 35.6487C34.9352 35.589 34.9493 35.5302 34.9744 35.4759C34.9994 35.4216 35.0349 35.3728 35.0789 35.3322C35.1228 35.2916 35.1743 35.2602 35.2305 35.2395C35.2866 35.2189 35.3463 35.2095 35.406 35.212H42.4126C42.4786 35.1985 42.5469 35.1999 42.6123 35.2161C42.6778 35.2323 42.7388 35.2629 42.791 35.3055C42.8432 35.3482 42.8853 35.402 42.9142 35.4629C42.9431 35.5238 42.9581 35.5904 42.9581 35.6578C42.9581 35.7253 42.9431 35.7918 42.9142 35.8528C42.8853 35.9137 42.8432 35.9674 42.791 36.0101C42.7388 36.0528 42.6778 36.0833 42.6123 36.0995C42.5469 36.1157 42.4786 36.1171 42.4126 36.1037H35.8974V41.1812H41.6846C41.7507 41.1678 41.8189 41.1691 41.8844 41.1853C41.9498 41.2015 42.0109 41.2321 42.0631 41.2748C42.1153 41.3174 42.1574 41.3712 42.1862 41.4321C42.2151 41.493 42.2301 41.5596 42.2301 41.627C42.2301 41.6945 42.2151 41.761 42.1862 41.822C42.1574 41.8829 42.1153 41.9366 42.0631 41.9793C42.0109 42.022 41.9498 42.0525 41.8844 42.0687C41.8189 42.0849 41.7507 42.0863 41.6846 42.0729H35.8974V47.1139H42.4126C42.4786 47.1005 42.5469 47.102 42.6123 47.1182C42.6778 47.1343 42.7388 47.1649 42.791 47.2076C42.8432 47.2502 42.8853 47.304 42.9142 47.3649C42.9431 47.4258 42.9581 47.4924 42.9581 47.5599C42.9581 47.6273 42.9431 47.6938 42.9142 47.7547C42.8853 47.8157 42.8432 47.8694 42.791 47.9121C42.7388 47.9548 42.6778 47.9853 42.6123 48.0015C42.5469 48.0177 42.4786 48.0191 42.4126 48.0057H35.3696C35.2552 48.0012 35.1467 47.9538 35.0658 47.8728C34.9848 47.7919 34.9374 47.6833 34.9329 47.5689V35.6487Z" fill="white"/>
<path d="M47.49 37.1591V47.6234C47.49 47.7489 47.4402 47.8693 47.3514 47.958C47.2627 48.0468 47.1423 48.0966 47.0169 48.0966C46.8914 48.0966 46.771 48.0468 46.6823 47.958C46.5935 47.8693 46.5437 47.7489 46.5437 47.6234V35.8852C46.5136 35.7949 46.5152 35.6969 46.5483 35.6075C46.5814 35.5182 46.6439 35.4428 46.7257 35.3938C46.8287 35.3268 46.9532 35.3008 47.0745 35.321C47.1958 35.3412 47.3051 35.4062 47.3808 35.5031L55.6613 46.2585V35.8306C55.666 35.7132 55.716 35.6021 55.8008 35.5206C55.8856 35.4392 55.9987 35.3937 56.1162 35.3938C56.2388 35.3888 56.3585 35.4315 56.4502 35.513C56.5418 35.5944 56.5983 35.7084 56.6076 35.8306V47.6234C56.5983 47.7457 56.5418 47.8596 56.4502 47.9411C56.3585 48.0226 56.2388 48.0653 56.1162 48.0602C56.0471 48.0624 55.9784 48.0487 55.9153 48.0204C55.8523 47.992 55.7965 47.9496 55.7523 47.8965L47.49 37.1591Z" fill="white"/>
<path d="M66.9081 42.3094C66.8478 42.3145 66.787 42.3069 66.7298 42.2872C66.6725 42.2675 66.62 42.2362 66.5755 42.1951C66.531 42.1541 66.4955 42.1042 66.4713 42.0487C66.4471 41.9932 66.4347 41.9332 66.435 41.8727C66.4349 41.8114 66.4473 41.7507 66.4713 41.6942C66.4952 41.6378 66.5304 41.5868 66.5746 41.5443C66.6188 41.5019 66.6711 41.4688 66.7284 41.447C66.7857 41.4252 66.8469 41.4153 66.9081 41.4177H71.1848C71.3008 41.4266 71.4095 41.4779 71.4901 41.5618C71.5707 41.6457 71.6175 41.7564 71.6216 41.8727V46.3314C71.6031 46.4591 71.5383 46.5757 71.4396 46.6589C70.1628 47.592 68.6168 48.084 67.0355 48.0603C66.1335 48.1431 65.2241 48.0369 64.3654 47.7485C63.5068 47.4601 62.7177 46.9959 62.0485 46.3853C61.3794 45.7748 60.8449 45.0315 60.4792 44.2027C60.1134 43.374 59.9246 42.4782 59.9246 41.5724C59.9246 40.6666 60.1134 39.7707 60.4792 38.942C60.8449 38.1133 61.3794 37.37 62.0485 36.7594C62.7177 36.1489 63.5068 35.6846 64.3654 35.3963C65.2241 35.1079 66.1335 35.0017 67.0355 35.0845C68.6293 35.0726 70.1828 35.5841 71.4578 36.5404C71.5009 36.5796 71.5353 36.6274 71.5588 36.6807C71.5823 36.734 71.5945 36.7916 71.5945 36.8498C71.5945 36.908 71.5823 36.9656 71.5588 37.0189C71.5353 37.0722 71.5009 37.1199 71.4578 37.1592C71.3648 37.241 71.2451 37.2862 71.1212 37.2862C70.9972 37.2862 70.8775 37.241 70.7845 37.1592C69.6903 36.3317 68.3527 35.8901 66.9809 35.9035C66.1996 35.8262 65.4107 35.9134 64.6651 36.1595C63.9195 36.4055 63.2337 36.805 62.6519 37.3322C62.07 37.8593 61.605 38.5025 61.2867 39.2202C60.9685 39.938 60.8041 40.7144 60.8041 41.4996C60.8041 42.2847 60.9685 43.0612 61.2867 43.7789C61.605 44.4967 62.07 45.1399 62.6519 45.667C63.2337 46.1942 63.9195 46.5936 64.6651 46.8397C65.4107 47.0858 66.1996 47.173 66.9809 47.0957C68.2765 47.1071 69.5453 46.7265 70.6207 46.0038V42.2366L66.9081 42.3094Z" fill="white"/>
<path d="M75.9347 48.0603C75.875 48.0627 75.8153 48.0533 75.7592 48.0327C75.703 48.0121 75.6515 47.9806 75.6076 47.94C75.5636 47.8994 75.5281 47.8506 75.503 47.7963C75.478 47.742 75.4639 47.6833 75.4615 47.6235V35.6487C75.4639 35.5889 75.478 35.5302 75.503 35.4759C75.5281 35.4216 75.5636 35.3728 75.6076 35.3322C75.6515 35.2916 75.703 35.2601 75.7592 35.2395C75.8153 35.2189 75.875 35.2095 75.9347 35.212C76.0573 35.2069 76.177 35.2495 76.2686 35.331C76.3603 35.4125 76.4168 35.5264 76.4261 35.6487V47.1139H82.9595C83.0255 47.1005 83.0938 47.102 83.1592 47.1181C83.2247 47.1343 83.2857 47.1649 83.3379 47.2076C83.3901 47.2502 83.4322 47.304 83.4611 47.3649C83.49 47.4258 83.505 47.4924 83.505 47.5598C83.505 47.6273 83.49 47.6938 83.4611 47.7547C83.4322 47.8156 83.3901 47.8694 83.3379 47.9121C83.2857 47.9547 83.2247 47.9853 83.1592 48.0015C83.0938 48.0177 83.0255 48.0191 82.9595 48.0057L75.9347 48.0603Z" fill="white"/>
<path d="M86.6357 35.6487C86.6404 35.5312 86.6904 35.4201 86.7753 35.3387C86.8601 35.2573 86.9731 35.2119 87.0907 35.212C87.2133 35.2069 87.333 35.2495 87.4247 35.331C87.5163 35.4125 87.5728 35.5264 87.5821 35.6487V47.5689C87.5728 47.6912 87.5163 47.8051 87.4247 47.8866C87.333 47.9681 87.2133 48.0108 87.0907 48.0057C86.9731 48.0058 86.8601 47.9603 86.7753 47.8789C86.6904 47.7975 86.6404 47.6864 86.6357 47.5689V35.6487Z" fill="white"/>
<path d="M91.8222 45.6763C91.9034 45.5995 92.0108 45.5566 92.1225 45.5566C92.2342 45.5566 92.3417 45.5995 92.4228 45.6763C93.706 46.6789 95.2724 47.2519 96.8997 47.3141C97.9607 47.3328 99.0042 47.0419 99.9025 46.477C100.23 46.2915 100.508 46.0287 100.711 45.7115C100.914 45.3943 101.036 45.0324 101.067 44.6571C101.072 44.28 100.971 43.9091 100.775 43.5871C100.578 43.2651 100.295 43.0052 99.9571 42.8372C98.9788 42.3042 97.9122 41.9528 96.8087 41.7999C95.6762 41.6512 94.5827 41.2867 93.5875 40.7262C93.1802 40.5062 92.837 40.1843 92.5914 39.7919C92.3458 39.3996 92.2062 38.9502 92.1862 38.4877C92.2092 38.0019 92.3505 37.5291 92.5979 37.1105C92.8453 36.6918 93.1913 36.3399 93.6057 36.0855C94.5869 35.4552 95.7338 35.1321 96.8997 35.1574C98.415 35.2269 99.8767 35.7394 101.104 36.6314C101.151 36.6611 101.191 36.6997 101.223 36.7451C101.255 36.7905 101.277 36.8418 101.289 36.896C101.301 36.9502 101.302 37.0061 101.292 37.0607C101.282 37.1153 101.261 37.1673 101.231 37.2138C101.165 37.3018 101.069 37.362 100.961 37.3822C100.853 37.4025 100.742 37.3813 100.649 37.323C99.5557 36.518 98.2543 36.0443 96.8997 35.9581C95.9143 35.9359 94.9448 36.2084 94.1153 36.7406C93.7958 36.927 93.5294 37.1922 93.3414 37.5107C93.1534 37.8293 93.0502 38.1907 93.0416 38.5605C93.0574 38.886 93.1603 39.2012 93.3396 39.4733C93.5188 39.7455 93.7679 39.9644 94.0607 40.1074C94.9609 40.615 95.9488 40.9484 96.9725 41.0901C98.195 41.2521 99.3751 41.6476 100.448 42.2549C100.89 42.4906 101.262 42.8383 101.527 43.2631C101.793 43.6879 101.941 44.1749 101.959 44.6753C101.928 45.1939 101.772 45.6972 101.502 46.1413C101.232 46.5854 100.858 46.9568 100.412 47.2231C99.3659 47.8964 98.1436 48.2447 96.8997 48.2241C95.0781 48.1485 93.3241 47.513 91.8768 46.4042C91.7973 46.3859 91.7258 46.3427 91.6726 46.2808C91.6195 46.2189 91.5875 46.1416 91.5814 46.0603C91.5753 45.979 91.5954 45.8978 91.6387 45.8287C91.682 45.7596 91.7464 45.7062 91.8222 45.6763Z" fill="white"/>
<path d="M113.406 42.1093H106.399V47.5689C106.39 47.6912 106.334 47.8051 106.242 47.8866C106.15 47.9681 106.031 48.0108 105.908 48.0057C105.848 48.0081 105.789 47.9987 105.733 47.9781C105.676 47.9575 105.625 47.926 105.581 47.8854C105.537 47.8448 105.501 47.796 105.476 47.7417C105.451 47.6874 105.437 47.6287 105.435 47.5689V35.6487C105.437 35.5889 105.451 35.5302 105.476 35.4759C105.501 35.4216 105.537 35.3728 105.581 35.3322C105.625 35.2916 105.676 35.2601 105.733 35.2395C105.789 35.2189 105.848 35.2095 105.908 35.212C106.031 35.2069 106.15 35.2495 106.242 35.331C106.334 35.4125 106.39 35.5264 106.399 35.6487V41.1083H113.406V35.6487C113.408 35.5889 113.422 35.5302 113.448 35.4759C113.473 35.4216 113.508 35.3728 113.552 35.3322C113.596 35.2916 113.647 35.2601 113.704 35.2395C113.76 35.2189 113.819 35.2095 113.879 35.212C114.002 35.2069 114.121 35.2495 114.213 35.331C114.305 35.4125 114.361 35.5264 114.371 35.6487V47.5689C114.361 47.6912 114.305 47.8051 114.213 47.8866C114.121 47.9681 114.002 48.0108 113.879 48.0057C113.819 48.0081 113.76 47.9987 113.704 47.9781C113.647 47.9575 113.596 47.926 113.552 47.8854C113.508 47.8448 113.473 47.796 113.448 47.7417C113.422 47.6874 113.408 47.6287 113.406 47.5689V42.1093Z" fill="white"/>
<path d="M103.633 56.4681H9.30896V81.7098H103.633V56.4681Z" fill="#263238"/>
<path d="M190.824 56.4681H103.633V81.7098H190.824V56.4681Z" fill="#263238"/>
<path d="M103.633 59.0888H9.30896V79.0892H103.633V59.0888Z" fill="white"/>
<path d="M17.5166 63.2017C27.3925 63.0319 37.2684 62.9469 47.1442 62.9469L60.5568 62.8559L90.2026 62.9469C100.085 62.9469 93.7331 63.0925 103.615 63.2381C93.7331 63.3837 100.085 63.4747 90.2026 63.5293L60.5568 63.6202L47.1442 63.4928C37.2684 63.4443 27.3925 63.3473 17.5166 63.2017Z" fill="#DBDBDB"/>
<path d="M17.5166 67.1145C27.3925 66.9931 37.2744 66.8961 47.1624 66.8233L60.5749 66.7322L90.2208 66.8233C100.103 66.8233 93.7514 66.9871 103.633 67.1145C93.7514 67.26 100.103 67.3692 90.2208 67.4056L60.5749 67.4966L47.1442 67.4056C37.2684 67.3692 27.3925 67.2722 17.5166 67.1145Z" fill="#DBDBDB"/>
<path d="M17.5166 71.0454C27.3925 70.8998 37.2744 70.8027 47.1624 70.7542L60.5749 70.6632L90.2208 70.7542C100.103 70.7542 93.7514 70.8998 103.633 71.0454C93.7514 71.191 100.103 71.2819 90.2208 71.3365L60.5749 71.4275L47.1442 71.3365C37.2684 71.2758 27.3925 71.1788 17.5166 71.0454Z" fill="#DBDBDB"/>
<path d="M17.5166 74.9763C27.3925 74.8307 37.2744 74.7276 47.1624 74.6669H60.5749H90.2208C100.103 74.6669 93.7514 74.8307 103.633 74.9763C93.7514 75.1037 100.103 75.2129 90.2208 75.2675H60.5749H47.1624C37.2744 75.219 27.3925 75.1219 17.5166 74.9763Z" fill="#DBDBDB"/>
<path d="M135.208 56.4681H122.942V81.7098H135.208V56.4681Z" fill="#455A64"/>
<path d="M186.31 56.4681H178.066V81.7098H186.31V56.4681Z" fill="#455A64"/>
<path d="M80.9212 116.379L187.148 116.379V81.6917L80.9212 81.6917V116.379Z" fill="#8EA250"/>
<path d="M0.264206 116.379L80.9213 116.379V81.6917H0.264206V116.379Z" fill="#8EA250"/>
<path d="M80.9212 112.775L187.148 112.775V85.295L80.9212 85.295V112.775Z" fill="white"/>
<path d="M180.268 107.134C171.982 107.267 163.701 107.364 155.427 107.425L130.586 107.516L105.744 107.425C97.4578 107.425 89.1773 107.328 80.903 107.134C89.1895 106.988 97.4699 106.891 105.744 106.842L130.586 106.751L155.427 106.842C163.714 106.879 171.994 106.976 180.268 107.134Z" fill="#DBDBDB"/>
<path d="M180.268 101.729C171.982 101.874 163.701 101.971 155.427 102.02H130.586H105.744C97.4578 102.02 89.1773 101.923 80.903 101.729C89.1895 101.607 97.4699 101.51 105.744 101.437H130.586H155.427C163.714 101.498 171.994 101.595 180.268 101.729Z" fill="#DBDBDB"/>
<path d="M180.268 96.3417C171.982 96.4873 163.701 96.5844 155.427 96.6329L130.586 96.7239L105.744 96.6329C97.4578 96.6329 89.1773 96.5358 80.903 96.3417C89.1895 96.1961 97.4699 96.0991 105.744 96.0505L130.586 95.9596L155.427 96.0505C163.714 96.1112 171.994 96.2083 180.268 96.3417Z" fill="#DBDBDB"/>
<path d="M180.268 90.9549C171.982 91.1005 163.701 91.1975 155.427 91.246L130.586 91.337L105.744 91.246C97.4578 91.246 89.1773 91.149 80.903 90.9549C89.1895 90.8093 97.4699 90.7122 105.744 90.6637L130.586 90.5727L155.427 90.6637C163.714 90.7244 171.994 90.8214 180.268 90.9549Z" fill="#DBDBDB"/>
<path d="M28.1992 81.6916H13.0942V116.379H28.1992V81.6916Z" fill="#455A64"/>
</svg>
