<svg width="1568" height="538" viewBox="0 0 1568 538" fill="none" xmlns="http://www.w3.org/2000/svg">
<path d="M850.944 519.289L850.702 519.287C850.429 519.245 850.169 519.14 849.943 518.982C849.717 518.823 849.531 518.615 849.398 518.373L809.287 439.456C809.119 439.033 809.124 438.561 809.302 438.142C809.371 437.92 809.485 437.715 809.635 437.539C809.786 437.362 809.97 437.218 810.178 437.114L814.837 434.851C815.043 434.753 815.265 434.696 815.493 434.684C815.72 434.673 815.947 434.706 816.162 434.782C816.376 434.859 816.573 434.977 816.742 435.129C816.911 435.282 817.048 435.466 817.145 435.672C817.249 435.875 817.311 436.096 817.328 436.323C817.344 436.55 817.315 436.778 817.241 436.993C817.168 437.209 817.052 437.407 816.9 437.577C816.748 437.746 816.564 437.883 816.358 437.98L813.263 439.466L851.481 514.627L919.265 444.098C919.476 443.877 919.739 443.713 920.031 443.622L1001.95 419.348L962.538 354.823L959.908 355.001C959.681 355.017 959.453 354.987 959.237 354.915C959.021 354.842 958.821 354.728 958.65 354.578C958.478 354.428 958.338 354.246 958.236 354.042C958.135 353.838 958.075 353.616 958.059 353.389C958.044 353.162 958.073 352.934 958.145 352.718C958.218 352.502 958.332 352.303 958.482 352.131C958.632 351.959 958.814 351.819 959.018 351.717C959.222 351.616 959.444 351.556 959.671 351.54L963.374 351.306C963.688 351.273 964.004 351.333 964.285 351.477C964.566 351.621 964.799 351.845 964.955 352.119L1006.1 419.43C1006.23 419.659 1006.31 419.916 1006.34 420.182C1006.36 420.447 1006.32 420.714 1006.22 420.963C1006.13 421.211 1005.98 421.434 1005.78 421.616C1005.59 421.798 1005.35 421.933 1005.1 422.012L921.447 446.785L852.3 518.613C852.14 518.822 851.935 518.991 851.7 519.108C851.465 519.225 851.206 519.287 850.944 519.289Z" fill="#263238"/>
<path d="M851.93 508.616L851.618 508.612C851.364 508.556 851.125 508.445 850.918 508.288C850.711 508.13 850.541 507.93 850.419 507.7L812.065 432.329C811.881 431.977 811.824 431.571 811.904 431.182C811.984 430.792 812.196 430.442 812.504 430.19C824.137 420.464 833.514 408.323 839.985 394.61C848.368 375.134 862.516 365.579 877.898 369.074C878.14 369.128 878.366 369.235 878.561 369.387C878.757 369.539 878.916 369.731 879.029 369.951L914.823 436.301C914.999 436.582 915.09 436.907 915.087 437.238C915.083 437.569 914.984 437.892 914.802 438.169C914.603 438.438 914.328 438.642 914.013 438.755C913.698 438.869 913.356 438.886 913.031 438.805C912.444 438.799 898.648 435.668 895.349 448.978C891.721 463.909 876.082 482.888 868.613 492.035L867.772 493.028C863.313 498.498 858.409 503.589 853.11 508.249C852.773 508.51 852.354 508.64 851.93 508.616ZM815.767 432.129L852.569 504.093C857.053 499.946 861.251 495.5 865.135 490.785L865.976 489.757C873.305 480.85 888.523 462.351 892.04 448.075C892.929 444.02 895.287 440.438 898.66 438.018C902.033 435.598 906.183 434.513 910.309 434.971L876.443 372.342C862.953 369.699 850.856 378.309 843.218 396.169C836.745 409.941 827.383 422.159 815.769 431.991L815.767 432.129Z" fill="#263238"/>
<path d="M913.377 438.878C913.066 438.872 912.763 438.784 912.498 438.623C912.233 438.462 912.014 438.234 911.865 437.962L876.072 371.577C875.863 371.209 875.806 370.774 875.913 370.365C878.754 357.741 892.544 352.262 920.584 352.582C944.787 352.858 954.243 345.393 954.347 345.325C954.539 345.17 954.764 345.06 955.004 345.003C955.243 344.946 955.493 344.943 955.734 344.995C955.978 345.03 956.21 345.121 956.413 345.262C956.615 345.402 956.782 345.587 956.901 345.803L997.145 413.103C997.376 413.489 997.449 413.949 997.347 414.387C997.245 414.824 996.977 415.205 996.599 415.449C996.32 415.653 993.118 417.484 976.462 422.55C964.595 426.184 951.6 425.517 941.164 424.983C937.055 424.714 932.934 424.667 928.821 424.842C919.407 425.53 915.05 437.653 914.841 437.789C914.73 438.103 914.528 438.377 914.261 438.577C913.994 438.777 913.674 438.894 913.342 438.913L913.377 438.878ZM879.576 370.545L913.442 433.174C915.704 428.842 920.487 421.843 928.792 421.246C933.045 421.072 937.303 421.12 941.55 421.391C951.711 421.922 964.394 422.551 975.671 419.118C986.291 415.781 991.255 414.039 993.41 413.13L954.856 349.238C951.061 351.477 940.493 356.37 920.544 356.143C895.306 355.751 882.182 360.374 879.438 370.543L879.576 370.545Z" fill="#263238"/>
<path d="M880.759 482.18C880.369 482.171 879.994 482.033 879.691 481.788C879.338 481.498 879.114 481.081 879.068 480.627C879.021 480.173 879.156 479.719 879.442 479.364C883.826 473.985 887.303 469.253 890.394 465.07C893.805 459.897 897.792 455.128 902.278 450.855C906.228 447.556 910.61 444.813 915.304 442.704C915.514 442.616 915.739 442.569 915.967 442.568C916.195 442.567 916.42 442.61 916.631 442.696C916.842 442.782 917.034 442.909 917.196 443.069C917.358 443.229 917.487 443.419 917.576 443.629C917.664 443.839 917.71 444.064 917.712 444.292C917.713 444.52 917.67 444.745 917.584 444.956C917.498 445.167 917.371 445.359 917.211 445.521C917.051 445.683 916.861 445.812 916.651 445.901C912.278 447.883 908.19 450.442 904.496 453.508C900.233 457.65 896.436 462.244 893.171 467.211C890.08 471.429 886.567 476.23 882.114 481.642C881.945 481.831 881.735 481.978 881.5 482.072C881.265 482.165 881.011 482.202 880.759 482.18Z" fill="#263238"/>
<path d="M923.141 440.753C922.766 440.757 922.401 440.631 922.108 440.396C921.75 440.111 921.519 439.696 921.465 439.242C921.412 438.788 921.541 438.331 921.824 437.972C926.221 432.748 932.441 429.394 939.221 428.592L943.235 428.292C960.377 427.556 977.279 423.987 993.254 417.727C993.469 417.628 993.704 417.574 993.941 417.569C994.179 417.564 994.416 417.608 994.636 417.698C994.855 417.789 995.054 417.924 995.22 418.095C995.385 418.265 995.514 418.469 995.597 418.691C995.68 418.914 995.717 419.152 995.704 419.389C995.691 419.627 995.63 419.859 995.523 420.072C995.417 420.284 995.267 420.473 995.085 420.625C994.902 420.777 994.69 420.89 994.462 420.957C978.117 427.342 960.831 430.989 943.3 431.75L939.32 432.016C933.513 432.77 928.193 435.655 924.393 440.11C924.241 440.299 924.051 440.454 923.836 440.565C923.62 440.676 923.383 440.74 923.141 440.753Z" fill="#263238"/>
<path d="M826.845 443.217C826.41 443.216 825.992 443.05 825.674 442.754C825.515 442.595 825.389 442.405 825.304 442.196C825.219 441.988 825.177 441.764 825.179 441.538C825.182 441.313 825.23 441.091 825.319 440.884C825.409 440.677 825.539 440.49 825.702 440.334C833.383 431.66 840.575 422.564 847.244 413.089C860.42 394.774 869.63 387.652 880.175 387.772C880.631 387.786 881.063 387.976 881.382 388.302C881.701 388.628 881.881 389.065 881.884 389.521C881.879 389.979 881.692 390.417 881.364 390.737C881.036 391.058 880.594 391.235 880.136 391.23C871.008 391.126 862.32 397.943 850.057 415.092C843.297 424.628 836.012 433.78 828.236 442.507C828.076 442.726 827.867 442.905 827.625 443.028C827.383 443.152 827.116 443.216 826.845 443.217Z" fill="#263238"/>
<path d="M833.833 455.054C833.402 455.037 832.989 454.874 832.662 454.591C832.502 454.428 832.376 454.236 832.29 454.024C832.205 453.812 832.162 453.586 832.165 453.358C832.168 453.13 832.215 452.904 832.306 452.694C832.396 452.485 832.527 452.295 832.69 452.136C840.386 443.477 847.59 434.393 854.267 424.926C867.233 406.816 876.791 399.456 887.164 399.574C887.622 399.579 888.06 399.767 888.381 400.095C888.701 400.422 888.878 400.864 888.873 401.323C888.868 401.781 888.681 402.219 888.353 402.539C888.025 402.86 887.583 403.037 887.124 403.032C878.031 402.928 869.309 409.745 857.08 426.895C850.316 436.437 843.02 445.589 835.225 454.309C835.068 454.535 834.861 454.72 834.619 454.85C834.377 454.979 834.107 455.049 833.833 455.054Z" fill="#263238"/>
<path d="M840.825 466.579C840.494 466.563 840.175 466.455 839.903 466.266C839.631 466.077 839.417 465.815 839.287 465.51C839.157 465.206 839.116 464.871 839.167 464.543C839.219 464.216 839.361 463.91 839.579 463.66C847.275 455.001 854.478 445.917 861.155 436.45C874.156 418.341 883.68 411.015 894.052 411.133C894.51 411.138 894.948 411.325 895.269 411.653C895.589 411.981 895.766 412.423 895.761 412.881C895.756 413.34 895.569 413.778 895.241 414.098C894.913 414.419 894.471 414.596 894.012 414.591C884.919 414.487 876.197 421.303 863.968 438.453C857.226 448.012 849.929 457.166 842.113 465.868C841.963 466.074 841.771 466.244 841.548 466.367C841.326 466.49 841.079 466.563 840.825 466.579Z" fill="#263238"/>
<path d="M847.815 478.243C847.605 478.245 847.396 478.205 847.201 478.126C847.006 478.046 846.829 477.929 846.679 477.78C846.519 477.618 846.393 477.425 846.307 477.214C846.222 477.002 846.179 476.775 846.182 476.547C846.185 476.319 846.232 476.094 846.322 475.884C846.413 475.674 846.543 475.485 846.707 475.326C854.427 466.687 861.631 457.601 868.284 448.116C881.284 430.006 890.808 422.68 901.215 422.799C901.673 422.804 902.111 422.991 902.432 423.319C902.752 423.647 902.929 424.089 902.924 424.547C902.91 425.003 902.72 425.435 902.394 425.754C902.068 426.073 901.631 426.253 901.175 426.256C892.048 426.152 883.36 432.969 871.096 450.119C864.354 459.733 857.056 468.944 849.239 477.706C849.057 477.896 848.834 478.043 848.588 478.136C848.342 478.229 848.078 478.265 847.815 478.243Z" fill="#263238"/>
<path d="M892.574 386.046C892.38 386.08 892.18 386.078 891.987 386.04C891.555 385.871 891.207 385.54 891.018 385.117C890.828 384.695 890.813 384.214 890.975 383.781C891.152 383.368 895.248 372.902 909.666 373.067C935.493 373.361 952.237 369.644 954.489 363.204C954.556 362.981 954.666 362.774 954.814 362.595C954.963 362.415 955.146 362.268 955.352 362.161C955.559 362.055 955.784 361.99 956.016 361.973C956.248 361.956 956.481 361.985 956.701 362.06C956.921 362.134 957.124 362.253 957.298 362.407C957.471 362.562 957.612 362.75 957.711 362.961C957.81 363.171 957.865 363.399 957.874 363.632C957.883 363.864 957.844 364.096 957.762 364.313C954.184 374.853 929.576 376.786 909.626 376.559C897.594 376.421 894.246 384.959 894.211 385.062C894.058 385.363 893.823 385.615 893.534 385.789C893.245 385.964 892.912 386.053 892.574 386.046Z" fill="#263238"/>
<path d="M900.443 399.484C900.051 399.492 899.669 399.352 899.376 399.091C899.2 398.954 899.052 398.782 898.942 398.587C898.833 398.393 898.763 398.178 898.736 397.956C898.71 397.734 898.728 397.508 898.789 397.293C898.85 397.078 898.953 396.877 899.092 396.702C899.373 396.325 906.106 388.068 923.739 388.269C942.202 388.479 955.943 384.314 964.58 375.871C964.907 375.558 965.344 375.385 965.796 375.391C966.249 375.396 966.681 375.578 967.001 375.899C967.161 376.061 967.287 376.254 967.373 376.465C967.458 376.677 967.501 376.904 967.498 377.132C967.495 377.36 967.448 377.585 967.357 377.795C967.267 378.005 967.136 378.195 966.973 378.353C957.671 387.445 943.097 391.913 923.7 391.692C907.934 391.512 901.87 398.739 901.8 398.808C901.644 399.02 901.439 399.192 901.203 399.309C900.967 399.427 900.707 399.487 900.443 399.484Z" fill="#263238"/>
<path d="M905.65 412.925C905.396 412.94 905.143 412.877 904.926 412.744C904.512 412.551 904.191 412.201 904.033 411.771C903.876 411.342 903.896 410.867 904.088 410.452C906.264 406.517 909.503 403.274 913.435 401.093C917.367 398.912 921.834 397.881 926.324 398.119C944.926 398.331 961.254 394.644 969.972 388.243C970.345 387.98 970.805 387.873 971.255 387.942C971.706 388.012 972.112 388.253 972.388 388.616C972.652 388.994 972.761 389.46 972.691 389.916C972.622 390.372 972.38 390.784 972.015 391.067C958.59 400.873 935.551 401.682 926.285 401.576C922.46 401.375 918.653 402.237 915.288 404.066C911.922 405.895 909.129 408.621 907.217 411.94C907.073 412.233 906.85 412.481 906.573 412.655C906.297 412.829 905.977 412.922 905.65 412.925Z" fill="#263238"/>
<path d="M911.762 422.781C911.59 422.812 911.414 422.81 911.243 422.775C910.811 422.634 910.452 422.329 910.243 421.925C910.034 421.522 909.992 421.052 910.127 420.618C910.132 420.203 913.457 410.594 929.649 409.81C945.976 409.109 962.078 405.729 977.309 399.806C977.521 399.687 977.756 399.614 977.997 399.592C978.239 399.57 978.483 399.599 978.713 399.677C978.943 399.755 979.154 399.881 979.332 400.046C979.51 400.211 979.652 400.412 979.747 400.636C979.842 400.859 979.889 401.1 979.885 401.343C979.881 401.586 979.825 401.826 979.723 402.046C979.62 402.266 979.472 402.462 979.288 402.621C979.104 402.78 978.889 402.898 978.656 402.968C963.013 409.078 946.46 412.536 929.679 413.199C916.048 413.839 913.404 421.278 913.297 421.588C913.19 421.918 912.987 422.208 912.713 422.42C912.439 422.633 912.108 422.759 911.762 422.781Z" fill="#263238"/>
<path d="M307.255 413.124L307.013 413.121C306.74 413.079 306.481 412.975 306.255 412.817C306.029 412.658 305.842 412.45 305.71 412.207L264.854 331.829C264.686 331.406 264.691 330.934 264.869 330.515C264.939 330.294 265.052 330.089 265.203 329.913C265.353 329.736 265.538 329.592 265.745 329.488L270.509 327.191C270.921 327 271.391 326.975 271.821 327.121C272.251 327.268 272.607 327.575 272.817 327.978C272.915 328.183 272.971 328.406 272.983 328.633C272.995 328.861 272.961 329.088 272.885 329.302C272.809 329.517 272.691 329.714 272.538 329.883C272.385 330.051 272.201 330.188 271.995 330.285L268.831 331.84L307.794 408.358L376.872 336.529C377.079 336.312 377.345 336.158 377.637 336.089L461.117 311.348L420.925 245.604L418.225 245.781C417.766 245.812 417.314 245.66 416.967 245.358C416.62 245.056 416.408 244.628 416.376 244.169C416.345 243.71 416.497 243.258 416.799 242.911C417.102 242.564 417.529 242.352 417.988 242.32L421.76 242.087C422.073 242.058 422.389 242.12 422.669 242.264C422.949 242.408 423.182 242.628 423.341 242.9L465.23 311.498C465.367 311.725 465.451 311.979 465.478 312.243C465.505 312.506 465.473 312.772 465.386 313.022C465.278 313.259 465.123 313.472 464.931 313.648C464.739 313.824 464.513 313.96 464.267 314.046L378.812 339.214L308.368 412.549C308.078 412.868 307.683 413.072 307.255 413.124Z" fill="#263238"/>
<path d="M308.14 402.242L307.829 402.238C307.568 402.189 307.321 402.081 307.107 401.923C306.893 401.765 306.718 401.56 306.594 401.325L267.53 324.598C267.343 324.243 267.288 323.834 267.375 323.442C267.462 323.05 267.685 322.702 268.004 322.46C279.877 312.559 289.456 300.197 296.08 286.229C304.605 266.409 319.032 256.684 334.656 260.216C334.9 260.275 335.129 260.383 335.33 260.534C335.53 260.685 335.698 260.875 335.821 261.094L372.223 328.765C372.378 329.057 372.447 329.386 372.421 329.716C372.395 330.045 372.275 330.36 372.076 330.623C371.876 330.886 371.606 331.087 371.296 331.201C370.986 331.316 370.65 331.339 370.327 331.268C369.705 331.261 355.633 328.057 352.264 341.436C348.633 356.644 332.679 375.965 325.07 385.249L324.193 386.311C319.653 391.861 314.667 397.031 309.286 401.771C308.971 402.056 308.565 402.223 308.14 402.242ZM271.235 324.156L308.676 397.649C313.266 393.386 317.559 388.814 321.523 383.964L322.4 382.902C329.834 373.823 345.368 354.912 348.921 340.464C349.863 336.345 352.28 332.713 355.717 330.255C359.153 327.797 363.371 326.682 367.573 327.122L333.167 263.415C319.366 260.699 307.095 269.446 299.315 287.58C292.697 301.651 283.119 314.128 271.235 324.156Z" fill="#263238"/>
<path d="M370.674 331.203C370.37 331.205 370.072 331.124 369.812 330.968C369.552 330.813 369.339 330.589 369.197 330.321L332.727 262.615C332.52 262.259 332.462 261.835 332.567 261.437C335.48 248.572 349.479 242.992 378.038 243.317C402.24 243.593 412.355 235.997 412.459 235.929C412.651 235.775 412.875 235.665 413.115 235.608C413.355 235.551 413.605 235.548 413.846 235.599C414.089 235.637 414.32 235.729 414.522 235.87C414.724 236.01 414.892 236.194 415.013 236.408L456.003 304.961C456.226 305.349 456.294 305.806 456.193 306.242C456.091 306.677 455.829 307.058 455.457 307.307C455.144 307.511 451.976 309.376 434.973 314.542C422.863 318.208 409.625 317.711 398.983 317.002C394.805 316.732 390.615 316.684 386.432 316.859C376.811 317.545 372.452 329.909 372.45 330.047C372.336 330.363 372.135 330.64 371.869 330.845C371.603 331.051 371.285 331.176 370.95 331.206L370.674 331.203ZM336.092 261.65L370.496 325.564C372.759 321.199 377.716 314.028 386.126 313.398C390.447 313.224 394.775 313.274 399.091 313.545C409.459 314.079 422.384 314.71 433.87 311.245C444.766 307.911 449.801 306.032 451.99 305.123L412.968 239.808C409.139 242.081 398.362 247.076 377.998 246.844C352.24 246.55 338.907 251.274 336.092 261.65Z" fill="#263238"/>
<path d="M337.493 375.328C337.104 375.319 336.728 375.181 336.426 374.935C336.073 374.646 335.849 374.229 335.802 373.775C335.755 373.321 335.89 372.867 336.177 372.512C340.631 367.03 344.178 362.229 347.304 357.943C350.778 352.674 354.848 347.824 359.434 343.489C363.451 340.133 367.903 337.334 372.668 335.168C373.097 334.999 373.575 335.005 374 335.184C374.424 335.364 374.762 335.702 374.94 336.127C375.109 336.547 375.107 337.016 374.934 337.434C374.761 337.853 374.431 338.187 374.015 338.364C369.559 340.381 365.399 342.998 361.651 346.142C357.307 350.263 353.438 354.859 350.118 359.842C346.957 364.163 343.374 369.032 338.851 374.548C338.706 374.78 338.506 374.972 338.27 375.108C338.033 375.244 337.766 375.32 337.493 375.328Z" fill="#263238"/>
<path d="M380.783 333.151C380.404 333.142 380.04 333.003 379.75 332.759C379.392 332.474 379.161 332.059 379.108 331.605C379.055 331.151 379.184 330.694 379.467 330.335C383.925 325.032 390.23 321.619 397.107 320.784L401.225 320.52C418.687 319.742 435.902 316.094 452.179 309.724C452.608 309.572 453.079 309.594 453.491 309.787C453.903 309.979 454.223 310.326 454.381 310.752C454.462 310.962 454.501 311.186 454.495 311.41C454.489 311.635 454.438 311.856 454.345 312.061C454.253 312.266 454.121 312.451 453.956 312.604C453.792 312.757 453.598 312.876 453.387 312.954C436.779 319.458 419.212 323.183 401.393 323.98L397.344 324.245C391.431 325.032 386.016 327.975 382.139 332.509C381.971 332.706 381.763 332.864 381.53 332.975C381.296 333.086 381.042 333.145 380.783 333.151Z" fill="#263238"/>
<path d="M282.549 335.662C282.339 335.664 282.13 335.624 281.935 335.545C281.74 335.465 281.563 335.348 281.414 335.199C281.253 335.037 281.127 334.844 281.042 334.632C280.956 334.421 280.914 334.194 280.916 333.966C280.919 333.738 280.967 333.513 281.057 333.303C281.147 333.093 281.278 332.903 281.442 332.745C289.291 323.926 296.635 314.669 303.439 305.021C316.826 286.362 326.21 279.138 336.928 279.261C337.387 279.266 337.825 279.453 338.145 279.781C338.466 280.109 338.643 280.551 338.637 281.009C338.623 281.465 338.433 281.897 338.107 282.216C337.781 282.534 337.345 282.714 336.889 282.718C327.588 282.612 318.691 289.634 306.217 307.023C299.359 316.807 291.931 326.178 283.974 335.09C283.796 335.289 283.576 335.444 283.328 335.543C283.081 335.642 282.815 335.683 282.549 335.662Z" fill="#263238"/>
<path d="M289.676 347.535C289.465 347.537 289.257 347.497 289.062 347.417C288.867 347.338 288.689 347.221 288.54 347.072C288.381 346.913 288.255 346.723 288.17 346.514C288.085 346.305 288.043 346.082 288.045 345.856C288.048 345.631 288.095 345.408 288.185 345.201C288.275 344.995 288.405 344.808 288.568 344.652C296.421 335.825 303.766 326.557 310.565 316.894C323.777 298.475 333.475 291.013 344.055 291.133C344.513 291.139 344.951 291.326 345.271 291.654C345.592 291.982 345.769 292.423 345.764 292.882C345.759 293.34 345.571 293.778 345.244 294.098C344.916 294.419 344.474 294.596 344.015 294.591C334.715 294.485 325.817 301.541 313.377 318.931C306.491 328.702 299.053 338.073 291.1 346.998C290.921 347.192 290.699 347.342 290.451 347.435C290.204 347.528 289.939 347.562 289.676 347.535Z" fill="#263238"/>
<path d="M296.802 359.442C296.471 359.426 296.151 359.317 295.879 359.128C295.608 358.939 295.394 358.677 295.264 358.373C295.134 358.068 295.093 357.733 295.144 357.406C295.196 357.079 295.338 356.773 295.556 356.523C303.405 347.704 310.749 338.448 317.553 328.799C330.765 310.346 340.463 302.884 351.043 303.004C351.498 303.019 351.931 303.208 352.25 303.534C352.568 303.86 352.748 304.297 352.752 304.753C352.747 305.211 352.56 305.649 352.232 305.97C351.904 306.29 351.462 306.467 351.003 306.462C341.703 306.356 332.839 313.413 320.365 330.802C313.479 340.573 306.041 349.944 298.088 358.869C297.929 359.053 297.731 359.199 297.509 359.298C297.286 359.397 297.045 359.446 296.802 359.442Z" fill="#263238"/>
<path d="M303.928 371.314C303.718 371.316 303.509 371.276 303.314 371.197C303.119 371.118 302.942 371 302.792 370.852C302.632 370.689 302.506 370.497 302.42 370.285C302.335 370.073 302.292 369.847 302.295 369.619C302.297 369.391 302.345 369.165 302.435 368.956C302.526 368.746 302.656 368.556 302.82 368.397C310.67 359.578 318.014 350.322 324.817 340.673C338.029 322.255 347.727 314.793 358.307 314.913C358.765 314.918 359.203 315.106 359.524 315.434C359.844 315.761 360.021 316.203 360.016 316.662C360.002 317.117 359.812 317.55 359.486 317.868C359.16 318.187 358.723 318.367 358.268 318.371C348.967 318.265 340.104 325.287 327.63 342.711C320.722 352.457 313.297 361.826 305.387 370.778C305.195 370.965 304.966 371.11 304.715 371.202C304.463 371.294 304.195 371.333 303.928 371.314Z" fill="#263238"/>
<path d="M349.502 277.398C349.224 277.395 348.952 277.325 348.707 277.194C348.462 277.063 348.252 276.875 348.096 276.646C347.939 276.417 347.84 276.154 347.806 275.878C347.773 275.603 347.806 275.323 347.903 275.063C348.081 274.616 352.248 263.978 366.908 264.145C393.254 264.446 410.31 260.663 412.598 254.05C412.753 253.622 413.068 253.27 413.476 253.069C413.884 252.867 414.355 252.831 414.789 252.969C415.007 253.038 415.208 253.15 415.381 253.299C415.554 253.447 415.695 253.629 415.796 253.834C415.897 254.038 415.956 254.261 415.969 254.489C415.982 254.717 415.948 254.945 415.871 255.16C412.291 265.873 387.198 267.835 366.868 267.603C354.698 267.464 351.282 275.932 351.14 276.276C351.011 276.606 350.786 276.889 350.494 277.089C350.202 277.29 349.856 277.397 349.502 277.398Z" fill="#263238"/>
<path d="M357.506 291.114C357.128 291.099 356.765 290.962 356.473 290.722C356.115 290.437 355.884 290.022 355.831 289.568C355.778 289.114 355.907 288.657 356.19 288.298C356.47 287.955 363.378 279.562 381.253 279.766C400.062 279.98 414.046 275.713 422.892 267.1C423.222 266.778 423.665 266.601 424.126 266.606C424.586 266.611 425.026 266.799 425.347 267.128C425.669 267.457 425.847 267.901 425.842 268.361C425.836 268.822 425.649 269.261 425.319 269.583C415.843 278.846 400.956 283.448 381.248 283.224C365.033 283.039 359.002 290.37 358.931 290.473C358.756 290.678 358.537 290.842 358.29 290.953C358.044 291.064 357.776 291.119 357.506 291.114Z" fill="#263238"/>
<path d="M362.814 304.798C362.574 304.843 362.327 304.84 362.088 304.79C361.882 304.695 361.698 304.559 361.546 304.392C361.394 304.224 361.277 304.028 361.202 303.814C361.127 303.6 361.096 303.374 361.11 303.148C361.124 302.922 361.183 302.701 361.284 302.499C363.476 298.483 366.761 295.171 370.758 292.946C374.755 290.721 379.301 289.674 383.869 289.927C402.851 290.144 419.457 286.391 428.349 279.888C428.722 279.625 429.181 279.518 429.632 279.587C430.082 279.657 430.489 279.898 430.765 280.261C431.036 280.631 431.149 281.093 431.079 281.546C431.009 281.999 430.762 282.406 430.392 282.677C416.757 292.688 393.269 293.492 383.83 293.385C379.921 293.158 376.027 294.031 372.589 295.905C369.151 297.779 366.307 300.578 364.379 303.986C364.218 304.252 363.987 304.469 363.71 304.612C363.434 304.755 363.124 304.82 362.814 304.798Z" fill="#263238"/>
<path d="M369.061 314.898C368.89 314.929 368.713 314.927 368.543 314.892C368.11 314.751 367.751 314.446 367.542 314.042C367.333 313.639 367.291 313.169 367.426 312.735C367.431 312.32 370.794 302.4 387.261 301.757C403.886 301.034 420.279 297.588 435.788 291.556C436 291.437 436.235 291.364 436.477 291.342C436.719 291.32 436.962 291.349 437.192 291.427C437.422 291.505 437.633 291.631 437.812 291.796C437.99 291.962 438.131 292.162 438.226 292.386C438.321 292.609 438.368 292.851 438.364 293.093C438.36 293.336 438.305 293.576 438.202 293.796C438.099 294.016 437.951 294.212 437.767 294.371C437.583 294.53 437.368 294.648 437.136 294.719C421.255 300.96 404.444 304.508 387.395 305.217C373.556 305.855 370.807 313.465 370.699 313.775C370.575 314.108 370.351 314.394 370.057 314.595C369.764 314.796 369.417 314.901 369.061 314.898Z" fill="#263238"/>
<path d="M1500 536.992C1499.8 537.038 1499.58 537.036 1499.38 536.985L1398.78 495.346C1398.52 495.245 1398.3 495.085 1398.12 494.878C1397.94 494.671 1397.82 494.425 1397.75 494.159C1397.69 493.895 1397.7 493.621 1397.76 493.358C1397.82 493.095 1397.94 492.85 1398.12 492.641L1408.88 479.762C1409.12 479.467 1409.45 479.261 1409.82 479.177C1410.19 479.094 1410.58 479.138 1410.93 479.301L1501.18 521.065L1547.8 436.254C1547.98 435.948 1548.25 435.701 1548.57 435.545C1548.89 435.389 1549.25 435.33 1549.6 435.376L1561.69 437.277C1561.96 437.32 1562.22 437.429 1562.44 437.594C1562.66 437.759 1562.84 437.976 1562.95 438.225C1563.08 438.466 1563.14 438.734 1563.14 439.005C1563.14 439.277 1563.07 439.543 1562.94 439.781L1515.95 530.431C1515.74 530.836 1515.37 531.14 1514.94 531.278C1514.5 531.415 1514.03 531.375 1513.62 531.165C1513.42 531.064 1513.24 530.922 1513.09 530.749C1512.94 530.576 1512.83 530.375 1512.76 530.158C1512.69 529.941 1512.67 529.713 1512.69 529.486C1512.71 529.26 1512.78 529.04 1512.89 528.84L1558.85 440.322L1550.32 438.98L1503.5 524.134C1503.3 524.519 1502.95 524.81 1502.54 524.947C1502.12 525.084 1501.67 525.056 1501.28 524.869L1410.74 482.999L1402.33 493.07L1500.76 533.785C1501.22 533.877 1501.62 534.148 1501.88 534.536C1502.14 534.925 1502.23 535.401 1502.14 535.858C1502.05 536.316 1501.78 536.718 1501.39 536.976C1501 537.234 1500.52 537.327 1500.07 537.235L1500 536.992Z" fill="#263238"/>
<path d="M1501.9 524.911C1501.52 524.905 1501.16 524.774 1500.86 524.54C1500.56 524.305 1500.35 523.979 1500.26 523.613L1464.08 384.607L1391.67 351.45L1412.73 472.925C1412.8 473.384 1412.7 473.856 1412.43 474.235C1412.16 474.615 1411.75 474.871 1411.29 474.949C1410.83 475.026 1410.36 474.918 1409.98 474.647C1409.6 474.377 1409.34 473.967 1409.26 473.508L1387.62 348.776C1387.57 348.469 1387.61 348.155 1387.72 347.865C1387.84 347.576 1388.02 347.32 1388.26 347.124C1388.51 346.925 1388.82 346.803 1389.13 346.77C1389.45 346.737 1389.77 346.794 1390.06 346.937L1466.19 381.83C1466.42 381.935 1466.62 382.089 1466.79 382.282C1466.95 382.475 1467.08 382.703 1467.14 382.948L1503.59 522.717C1503.65 522.938 1503.67 523.17 1503.64 523.399C1503.62 523.628 1503.54 523.849 1503.43 524.048C1503.31 524.247 1503.16 524.421 1502.97 524.558C1502.79 524.696 1502.58 524.794 1502.35 524.847L1501.9 524.911Z" fill="#263238"/>
<path d="M1399.43 495.354C1399.03 495.349 1398.63 495.203 1398.32 494.941C1398.01 494.679 1397.8 494.317 1397.72 493.917L1377.85 372.006C1377.78 371.698 1377.78 371.379 1377.86 371.072L1387.7 347.809C1387.79 347.599 1387.92 347.408 1388.08 347.248C1388.24 347.088 1388.43 346.961 1388.65 346.875C1388.86 346.789 1389.08 346.746 1389.31 346.747C1389.54 346.749 1389.77 346.795 1389.98 346.884C1390.19 346.973 1390.38 347.102 1390.54 347.264C1390.7 347.427 1390.82 347.619 1390.91 347.83C1390.99 348.041 1391.04 348.268 1391.04 348.496C1391.04 348.724 1390.99 348.949 1390.9 349.159L1381.24 371.941L1401.05 493.194C1401.12 493.647 1401 494.109 1400.73 494.48C1400.46 494.852 1400.06 495.104 1399.61 495.183L1399.43 495.354Z" fill="#263238"/>
<path d="M1543.82 427.253C1543.45 427.254 1543.1 427.138 1542.8 426.924C1542.51 426.709 1542.28 426.406 1542.17 426.059L1507.84 316.674L1467.02 384.295C1466.78 384.678 1466.4 384.951 1465.96 385.054C1465.51 385.157 1465.05 385.083 1464.66 384.848C1464.28 384.612 1464 384.234 1463.89 383.794C1463.77 383.355 1463.84 382.889 1464.07 382.498L1506.89 311.614C1507.06 311.325 1507.3 311.091 1507.6 310.94C1507.9 310.79 1508.23 310.73 1508.56 310.769C1508.89 310.809 1509.2 310.943 1509.46 311.154C1509.71 311.365 1509.9 311.645 1510 311.961L1545.47 425.128C1545.54 425.344 1545.57 425.573 1545.55 425.801C1545.53 426.028 1545.47 426.25 1545.36 426.452C1545.26 426.654 1545.11 426.833 1544.94 426.977C1544.76 427.122 1544.56 427.23 1544.34 427.294C1544.16 427.314 1543.99 427.3 1543.82 427.253Z" fill="#263238"/>
<path d="M1561.41 440.594C1561.04 440.586 1560.68 440.464 1560.39 440.243C1560.09 440.023 1559.87 439.716 1559.76 439.365L1520.52 314.432L1508.31 314.293C1508.09 314.286 1507.86 314.234 1507.66 314.141C1507.45 314.047 1507.26 313.914 1507.11 313.749C1506.95 313.583 1506.83 313.389 1506.75 313.176C1506.67 312.964 1506.63 312.738 1506.64 312.511C1506.68 312.067 1506.88 311.652 1507.2 311.344C1507.52 311.035 1507.94 310.855 1508.39 310.836L1521.84 310.989C1522.2 311.001 1522.54 311.122 1522.83 311.335C1523.12 311.548 1523.33 311.844 1523.45 312.183L1563.06 438.261C1563.13 438.477 1563.16 438.706 1563.14 438.934C1563.12 439.161 1563.06 439.382 1562.95 439.585C1562.85 439.787 1562.7 439.966 1562.53 440.11C1562.35 440.255 1562.14 440.363 1561.93 440.427C1561.77 440.516 1561.59 440.573 1561.41 440.594Z" fill="#263238"/>
<path d="M1494.57 476.417C1494.26 476.419 1493.97 476.332 1493.71 476.165C1493.51 476.051 1493.34 475.9 1493.2 475.719C1493.07 475.538 1492.97 475.332 1492.91 475.112C1492.86 474.892 1492.85 474.663 1492.88 474.439C1492.91 474.215 1492.99 474 1493.11 473.807L1526.75 417.134C1526.99 416.742 1527.38 416.46 1527.82 416.349C1528.27 416.238 1528.74 416.306 1529.14 416.539C1529.34 416.652 1529.51 416.804 1529.65 416.985C1529.78 417.166 1529.88 417.372 1529.94 417.592C1529.99 417.812 1530 418.041 1529.97 418.265C1529.93 418.489 1529.86 418.704 1529.74 418.897L1496.07 475.535C1495.92 475.801 1495.7 476.022 1495.44 476.177C1495.17 476.332 1494.88 476.415 1494.57 476.417Z" fill="#263238"/>
<path d="M1489.43 451.53C1489.12 451.529 1488.82 451.441 1488.56 451.278C1488.37 451.165 1488.2 451.013 1488.06 450.833C1487.92 450.652 1487.82 450.445 1487.77 450.225C1487.71 450.005 1487.7 449.776 1487.73 449.552C1487.77 449.328 1487.85 449.113 1487.97 448.92L1521.64 392.248C1521.74 392.029 1521.89 391.834 1522.07 391.675C1522.25 391.516 1522.46 391.397 1522.7 391.326C1522.93 391.255 1523.17 391.233 1523.41 391.262C1523.65 391.291 1523.88 391.37 1524.09 391.494C1524.3 391.617 1524.48 391.784 1524.62 391.981C1524.76 392.179 1524.85 392.404 1524.9 392.641C1524.95 392.878 1524.94 393.123 1524.89 393.359C1524.84 393.595 1524.74 393.817 1524.59 394.011L1490.92 450.683C1490.77 450.942 1490.55 451.157 1490.29 451.306C1490.02 451.454 1489.73 451.532 1489.43 451.53Z" fill="#263238"/>
<path d="M1484.14 426.642C1483.84 426.636 1483.55 426.562 1483.28 426.425C1482.89 426.183 1482.61 425.797 1482.49 425.35C1482.38 424.903 1482.45 424.43 1482.68 424.032L1516.35 367.395C1516.46 367.175 1516.6 366.98 1516.78 366.821C1516.97 366.662 1517.18 366.543 1517.41 366.472C1517.64 366.401 1517.89 366.379 1518.13 366.408C1518.37 366.437 1518.6 366.516 1518.81 366.64C1519.01 366.764 1519.19 366.93 1519.33 367.128C1519.47 367.326 1519.57 367.55 1519.62 367.787C1519.66 368.025 1519.66 368.269 1519.61 368.505C1519.55 368.741 1519.45 368.963 1519.31 369.157L1485.67 425.795C1485.51 426.055 1485.29 426.269 1485.02 426.417C1484.75 426.566 1484.45 426.643 1484.14 426.642Z" fill="#263238"/>
<path d="M1478.93 401.789C1478.62 401.788 1478.32 401.701 1478.07 401.537C1477.87 401.424 1477.7 401.273 1477.56 401.092C1477.42 400.911 1477.32 400.704 1477.27 400.484C1477.21 400.264 1477.2 400.036 1477.24 399.811C1477.27 399.587 1477.35 399.372 1477.47 399.179L1511.14 342.507C1511.24 342.288 1511.39 342.093 1511.57 341.934C1511.75 341.775 1511.97 341.656 1512.2 341.585C1512.43 341.514 1512.67 341.492 1512.91 341.521C1513.15 341.55 1513.38 341.629 1513.59 341.753C1513.8 341.877 1513.98 342.043 1514.12 342.24C1514.26 342.438 1514.35 342.663 1514.4 342.9C1514.45 343.137 1514.45 343.382 1514.39 343.618C1514.34 343.854 1514.24 344.076 1514.09 344.27L1480.46 400.942C1480.3 401.204 1480.07 401.42 1479.81 401.569C1479.54 401.718 1479.23 401.794 1478.93 401.789Z" fill="#263238"/>
<path d="M1478.18 476.23C1477.95 476.263 1477.72 476.26 1477.49 476.222L1423.1 451.397C1422.68 451.208 1422.36 450.861 1422.19 450.431C1422.03 450.001 1422.04 449.524 1422.23 449.104C1422.42 448.685 1422.77 448.357 1423.2 448.193C1423.63 448.029 1424.1 448.043 1424.52 448.231L1478.91 473.057C1479.12 473.149 1479.31 473.282 1479.46 473.448C1479.62 473.613 1479.74 473.808 1479.82 474.021C1479.9 474.234 1479.94 474.461 1479.94 474.689C1479.93 474.917 1479.88 475.141 1479.78 475.349C1479.62 475.628 1479.39 475.857 1479.11 476.013C1478.82 476.168 1478.5 476.243 1478.18 476.23Z" fill="#263238"/>
<path d="M1476.06 452.727C1475.84 452.775 1475.6 452.772 1475.37 452.719L1420.99 427.893C1420.77 427.805 1420.58 427.674 1420.42 427.509C1420.26 427.344 1420.14 427.148 1420.06 426.934C1419.98 426.72 1419.94 426.491 1419.95 426.262C1419.96 426.033 1420.01 425.808 1420.11 425.601C1420.31 425.187 1420.66 424.866 1421.09 424.709C1421.52 424.551 1421.99 424.571 1422.4 424.763L1476.79 449.588C1477.25 449.685 1477.65 449.96 1477.9 450.352C1478.16 450.744 1478.25 451.221 1478.15 451.678C1478.05 452.136 1477.78 452.536 1477.39 452.791C1477 453.046 1476.52 453.135 1476.06 453.038L1476.06 452.727Z" fill="#263238"/>
<path d="M1466.42 428.238C1466.19 428.287 1465.95 428.285 1465.73 428.23L1411.34 403.405C1411.11 403.329 1410.9 403.206 1410.72 403.043C1410.54 402.88 1410.39 402.68 1410.3 402.458C1410.2 402.236 1410.15 401.995 1410.15 401.752C1410.15 401.509 1410.2 401.269 1410.3 401.048C1410.4 400.827 1410.55 400.629 1410.73 400.468C1410.91 400.307 1411.13 400.186 1411.36 400.113C1411.59 400.04 1411.83 400.017 1412.08 400.044C1412.32 400.072 1412.55 400.151 1412.76 400.274L1467.15 425.1C1467.35 425.192 1467.54 425.325 1467.7 425.491C1467.86 425.656 1467.98 425.851 1468.06 426.064C1468.14 426.277 1468.18 426.504 1468.17 426.732C1468.17 426.96 1468.11 427.184 1468.02 427.392C1467.85 427.662 1467.61 427.882 1467.33 428.031C1467.05 428.18 1466.74 428.251 1466.42 428.238Z" fill="#263238"/>
<path d="M1462.69 403.437C1462.44 403.426 1462.19 403.364 1461.97 403.256L1407.58 378.431C1407.16 378.23 1406.84 377.874 1406.68 377.439C1406.53 377.004 1406.55 376.524 1406.74 376.104C1406.94 375.69 1407.28 375.369 1407.71 375.212C1408.14 375.054 1408.62 375.074 1409.03 375.266L1463.42 400.091C1463.63 400.183 1463.82 400.316 1463.97 400.483C1464.13 400.649 1464.25 400.845 1464.33 401.059C1464.4 401.273 1464.44 401.5 1464.43 401.728C1464.42 401.955 1464.36 402.178 1464.26 402.383C1464.13 402.694 1463.91 402.961 1463.63 403.149C1463.36 403.337 1463.03 403.437 1462.69 403.437Z" fill="#263238"/>
<path d="M89.6364 156.938L88.9795 156.93L20.1454 128.482C19.8917 128.382 19.6661 128.221 19.4879 128.014C19.3096 127.808 19.1839 127.561 19.1216 127.295C19.0616 127.031 19.0632 126.757 19.1261 126.494C19.1891 126.231 19.3118 125.986 19.4847 125.778L26.8466 116.975C27.0825 116.674 27.4147 116.464 27.7873 116.38C28.16 116.297 28.5502 116.344 28.8921 116.514L90.2234 144.876L122.001 87.2839C122.167 86.97 122.428 86.7162 122.746 86.5585C123.064 86.4008 123.424 86.3472 123.775 86.4051L132.059 87.7097C132.327 87.7516 132.582 87.8561 132.802 88.0148C133.023 88.1735 133.203 88.382 133.328 88.6233C133.444 88.8727 133.503 89.1452 133.5 89.4205C133.497 89.6959 133.432 89.967 133.31 90.2137L101.137 152.09C100.925 152.494 100.562 152.799 100.126 152.936C99.6906 153.074 99.2182 153.033 98.8122 152.824C98.6085 152.722 98.4272 152.581 98.2793 152.408C98.1314 152.235 98.0198 152.034 97.9513 151.817C97.8828 151.6 97.8587 151.371 97.8805 151.145C97.9022 150.918 97.9694 150.699 98.078 150.499L129.156 90.5813L124.427 89.8358L92.6455 147.774C92.4342 148.161 92.0829 148.453 91.6635 148.59C91.2441 148.726 90.7883 148.697 90.3895 148.509L28.8161 120.144L23.8029 126.138L90.5029 153.732C90.9217 153.913 91.2538 154.25 91.4296 154.671C91.6054 155.092 91.611 155.565 91.4454 155.99C91.2836 156.32 91.0209 156.589 90.6957 156.76C90.3705 156.93 89.9995 156.992 89.6364 156.938Z" fill="#263238"/>
<path d="M90.9407 148.688C90.5622 148.682 90.1963 148.551 89.8991 148.317C89.6019 148.082 89.3899 147.757 89.2957 147.39L64.5812 52.4998L16.1813 30.3016L30.4253 112.451C30.501 112.901 30.3956 113.363 30.1322 113.736C29.8689 114.108 29.4689 114.362 29.0194 114.441C28.7961 114.483 28.5665 114.48 28.3444 114.432C28.1223 114.383 27.9121 114.291 27.7265 114.16C27.5408 114.029 27.3835 113.861 27.2638 113.668C27.1442 113.475 27.0645 113.259 27.0298 113.035L12.2348 27.6631C12.176 27.3543 12.2043 27.0351 12.3165 26.7414C12.4287 26.4477 12.6204 26.1911 12.8702 26.0001C13.12 25.8092 13.418 25.6915 13.7309 25.6603C14.0437 25.629 14.3591 25.6855 14.6417 25.8233L66.8955 49.6907C67.1322 49.7967 67.3415 49.9558 67.5071 50.1555C67.6727 50.3552 67.7902 50.5904 67.8506 50.8427L92.7634 146.531C92.875 146.972 92.8081 147.44 92.577 147.832C92.3459 148.224 91.9695 148.509 91.5293 148.626L90.9407 148.688Z" fill="#263238"/>
<path d="M20.7681 128.455C20.3597 128.447 19.9672 128.295 19.6601 128.026C19.3531 127.757 19.1512 127.387 19.0905 126.983L5.4823 43.6654C5.41776 43.3456 5.42152 43.0157 5.49334 42.6973L12.2446 26.7987C12.4503 26.4213 12.7892 26.1341 13.1953 25.9931C13.6013 25.8521 14.0453 25.8674 14.4406 26.036C14.836 26.2046 15.1544 26.5144 15.3337 26.9051C15.513 27.2957 15.5404 27.7391 15.4105 28.1488L8.87184 43.6003L22.4152 126.537C22.4808 126.991 22.367 127.452 22.0981 127.824C21.8292 128.195 21.4264 128.447 20.9748 128.526L20.7681 128.455Z" fill="#263238"/>
<path d="M119.608 81.8623C119.244 81.8531 118.893 81.7294 118.603 81.5088C118.314 81.2882 118.102 80.982 117.997 80.6337L94.8389 6.92358L67.5245 52.153C67.4112 52.3496 67.2597 52.5213 67.0788 52.6582C66.8979 52.795 66.6914 52.8942 66.4714 52.9497C66.2515 53.0053 66.0226 53.0161 65.7984 52.9815C65.5743 52.947 65.3593 52.8678 65.1664 52.7486C64.7742 52.5066 64.4923 52.1207 64.381 51.6735C64.2698 51.2263 64.338 50.7533 64.5711 50.3558L93.8941 1.82967C94.0687 1.55133 94.319 1.32851 94.6156 1.18729C94.9123 1.04608 95.243 0.99232 95.5692 1.03232C95.8953 1.07233 96.2033 1.20443 96.4571 1.41316C96.7108 1.62189 96.8997 1.89859 97.0019 2.21088L121.293 79.5993C121.421 80.0365 121.375 80.5061 121.164 80.9098C120.953 81.3134 120.594 81.6199 120.162 81.7649C119.985 81.8308 119.797 81.8638 119.608 81.8623Z" fill="#263238"/>
<path d="M131.641 90.9555C131.281 90.954 130.93 90.8373 130.64 90.6225C130.35 90.4078 130.136 90.1061 130.03 89.7614L103.337 4.63443L95.3846 4.54379C95.1576 4.53671 94.9343 4.48497 94.7273 4.39154C94.5203 4.29812 94.3337 4.16483 94.1783 3.99929C94.0228 3.83375 93.9015 3.63922 93.8212 3.42678C93.741 3.21434 93.7034 2.98815 93.7105 2.76117C93.7082 2.53434 93.7524 2.30944 93.8404 2.10036C93.9283 1.89127 94.0582 1.70244 94.222 1.54552C94.3859 1.3886 94.5801 1.26692 94.7928 1.18801C95.0055 1.1091 95.232 1.07463 95.4586 1.08672L104.655 1.19154C105.019 1.20077 105.371 1.32449 105.66 1.54508C105.949 1.76568 106.162 2.0719 106.267 2.42017L133.396 88.7278C133.533 89.165 133.49 89.6386 133.278 90.0447C133.066 90.4507 132.702 90.756 132.265 90.8934L131.641 90.9555Z" fill="#263238"/>
<path d="M85.925 115.47C85.6193 115.472 85.3196 115.385 85.0634 115.218C84.8668 115.105 84.6951 114.953 84.5582 114.772C84.4214 114.591 84.3222 114.385 84.2666 114.165C84.2111 113.945 84.2003 113.716 84.2348 113.492C84.2694 113.268 84.3487 113.053 84.4679 112.86L107.49 74.0822C107.72 73.6864 108.097 73.3978 108.539 73.2797C108.981 73.1616 109.452 73.2236 109.849 73.4521C110.24 73.6945 110.523 74.0778 110.641 74.5231C110.758 74.9683 110.7 75.4415 110.478 75.8452L87.4215 114.622C87.2677 114.882 87.0487 115.097 86.7861 115.245C86.5236 115.394 86.2267 115.471 85.925 115.47Z" fill="#263238"/>
<path d="M82.3498 98.4506C82.0441 98.4531 81.7444 98.3655 81.4882 98.1987C81.2917 98.0854 81.1199 97.9339 80.9831 97.753C80.8462 97.5721 80.747 97.3656 80.6914 97.1456C80.6359 96.9257 80.6251 96.6969 80.6596 96.4727C80.6942 96.2485 80.7735 96.0335 80.8927 95.8405L103.915 57.0631C104.151 56.665 104.535 56.3757 104.982 56.2579C105.43 56.1401 105.906 56.2031 106.308 56.4333C106.7 56.6753 106.982 57.0612 107.093 57.5084C107.204 57.9556 107.136 58.4286 106.903 58.8261L83.8463 97.6032C83.6925 97.8627 83.4735 98.0775 83.2109 98.2262C82.9484 98.3748 82.6515 98.4522 82.3498 98.4506Z" fill="#263238"/>
<path d="M78.7748 81.4314C78.4696 81.43 78.171 81.3427 77.9132 81.1795C77.7167 81.0663 77.5448 80.9147 77.4079 80.7338C77.2711 80.5529 77.172 80.3464 77.1164 80.1264C77.0609 79.9065 77.0501 79.6777 77.0846 79.4535C77.1192 79.2293 77.1984 79.0143 77.3176 78.8213L100.374 40.0443C100.485 39.8448 100.634 39.6697 100.814 39.5293C100.993 39.389 101.199 39.2863 101.42 39.2275C101.64 39.1687 101.87 39.1549 102.095 39.1869C102.321 39.219 102.538 39.2963 102.733 39.4141C103.125 39.6561 103.407 40.042 103.518 40.4892C103.629 40.9364 103.561 41.4094 103.328 41.8069L80.375 80.5852C80.207 80.8551 79.9704 81.0757 79.6892 81.2244C79.4081 81.373 79.0925 81.4445 78.7748 81.4314Z" fill="#263238"/>
<path d="M75.1996 64.4123C74.8944 64.4109 74.5958 64.3237 74.338 64.1605C74.1298 64.0498 73.9463 63.8978 73.7991 63.7136C73.6518 63.5295 73.5438 63.3172 73.4816 63.0898C73.4194 62.8624 73.4044 62.6246 73.4375 62.3912C73.4706 62.1578 73.5511 61.9335 73.674 61.7324L96.7308 22.9553C96.8411 22.7558 96.9906 22.5807 97.1702 22.4403C97.3498 22.3 97.5559 22.1974 97.7761 22.1385C97.9963 22.0797 98.226 22.0659 98.4517 22.098C98.6774 22.13 98.8942 22.2073 99.0893 22.3251C99.4815 22.5671 99.7633 22.953 99.8746 23.4002C99.9858 23.8474 99.9176 24.3204 99.6845 24.7179L76.6623 63.4954C76.5202 63.763 76.3103 63.9886 76.0535 64.1495C75.7968 64.3105 75.5024 64.4011 75.1996 64.4123Z" fill="#263238"/>
<path d="M74.6871 115.445C74.4586 115.491 74.223 115.489 73.9956 115.437L36.7754 98.3806C36.5671 98.288 36.3791 98.1551 36.2223 97.9896C36.0656 97.824 35.9431 97.6292 35.862 97.4161C35.7808 97.2031 35.7427 96.9761 35.7496 96.7482C35.7565 96.5204 35.8085 96.2961 35.9024 96.0884C36.0965 95.6739 36.4442 95.351 36.8719 95.1881C37.2997 95.0253 37.774 95.0351 38.1946 95.2155L75.449 112.307C75.8635 112.501 76.1844 112.85 76.3415 113.28C76.4987 113.71 76.4792 114.184 76.2874 114.599C76.122 114.872 75.8859 115.094 75.6041 115.243C75.3223 115.392 75.0054 115.462 74.6871 115.445Z" fill="#263238"/>
<path d="M73.2461 99.2804C73.0178 99.3286 72.7817 99.3259 72.5546 99.2726L35.4055 82.0437C35.0185 81.8341 34.7261 81.4848 34.5877 81.067C34.4493 80.6493 34.4754 80.1945 34.6608 79.7954C34.8461 79.3962 35.1767 79.0828 35.5852 78.9189C35.9936 78.7551 36.4491 78.7531 36.8589 78.9135L74.0792 95.9703C74.5367 96.0673 74.9368 96.3419 75.1917 96.7339C75.4467 97.1259 75.5355 97.6031 75.4385 98.0606C75.3416 98.518 75.0669 98.9182 74.6749 99.1732C74.2829 99.4281 73.8057 99.5169 73.3483 99.4199L73.2461 99.2804Z" fill="#263238"/>
<path d="M66.5228 82.3984C66.294 82.4414 66.0589 82.4387 65.8312 82.3905L28.6806 65.2999C28.4497 65.2243 28.2372 65.1009 28.0572 64.9378C27.8772 64.7747 27.7336 64.5754 27.6358 64.353C27.5379 64.1307 27.4881 63.8902 27.4894 63.6472C27.4908 63.4043 27.5432 63.1644 27.6435 62.9431C27.7438 62.7218 27.8897 62.5241 28.0715 62.363C28.2533 62.2018 28.4669 62.0808 28.6987 62.0078C28.9304 61.9348 29.1749 61.9115 29.4163 61.9393C29.6576 61.9671 29.8904 62.0455 30.0994 62.1693L67.3543 79.2266C67.8117 79.3281 68.2099 79.6071 68.4616 80.0023C68.7132 80.3975 68.7976 80.8765 68.6961 81.3339C68.5946 81.7913 68.3155 82.1896 67.9203 82.4413C67.5251 82.6929 67.0461 82.7773 66.5887 82.6758L66.5228 82.3984Z" fill="#263238"/>
<path d="M64.0886 65.3922C63.8604 65.4415 63.6241 65.4388 63.3971 65.3843L26.1423 48.3271C25.7553 48.1175 25.4628 47.7683 25.3245 47.3505C25.1861 46.9328 25.2123 46.478 25.3976 46.0788C25.583 45.6797 25.9135 45.3662 26.3219 45.2024C26.7303 45.0385 27.1859 45.0366 27.5957 45.197L64.816 62.2538C65.0243 62.3464 65.2122 62.4793 65.3689 62.6448C65.5257 62.8103 65.6482 63.0052 65.7293 63.2183C65.8104 63.4313 65.8486 63.6583 65.8417 63.8861C65.8347 64.114 65.7829 64.3382 65.6889 64.5459C65.5209 64.8159 65.2841 65.0365 65.003 65.1852C64.7219 65.3338 64.4063 65.4053 64.0886 65.3922Z" fill="#263238"/>
<path d="M693.379 299.818C693.173 299.864 692.96 299.861 692.756 299.81L609.226 265.247C608.981 265.138 608.765 264.973 608.593 264.767C608.421 264.561 608.298 264.318 608.235 264.057C608.171 263.796 608.168 263.524 608.225 263.261C608.282 262.999 608.399 262.753 608.566 262.543L617.505 251.856C617.741 251.555 618.073 251.346 618.446 251.262C618.819 251.178 619.209 251.225 619.551 251.395L694.228 285.926L732.823 215.79C732.985 215.473 733.245 215.216 733.564 215.057C733.884 214.899 734.246 214.848 734.596 214.911L744.641 216.478C744.91 216.531 745.164 216.644 745.383 216.808C745.603 216.972 745.783 217.183 745.91 217.426C746.026 217.67 746.085 217.937 746.082 218.206C746.079 218.476 746.014 218.741 745.892 218.982L706.997 294.233C706.896 294.436 706.754 294.618 706.581 294.766C706.408 294.913 706.208 295.025 705.991 295.093C705.774 295.162 705.545 295.186 705.318 295.164C705.092 295.143 704.872 295.075 704.672 294.967C704.267 294.755 703.963 294.391 703.825 293.956C703.688 293.52 703.728 293.048 703.938 292.642L741.703 219.384L735.249 218.377L696.408 288.89C696.197 289.269 695.852 289.555 695.44 289.691C695.029 289.827 694.581 289.804 694.186 289.626L619.233 254.953L612.677 262.832L694.004 296.471C694.423 296.652 694.756 296.988 694.931 297.41C695.107 297.831 695.113 298.304 694.947 298.729C694.818 299.042 694.601 299.311 694.323 299.504C694.045 299.697 693.717 299.806 693.379 299.818Z" fill="#263238"/>
<path d="M694.945 289.773C694.567 289.766 694.201 289.636 693.904 289.401C693.607 289.167 693.395 288.841 693.3 288.475L663.32 173.226L603.843 145.992L621.232 246.469C621.309 246.929 621.201 247.4 620.931 247.78C620.66 248.159 620.251 248.416 619.791 248.493C619.332 248.571 618.86 248.462 618.481 248.192C618.101 247.922 617.845 247.512 617.767 247.052L599.825 143.525C599.777 143.213 599.811 142.893 599.924 142.597C600.036 142.302 600.223 142.04 600.467 141.838C600.722 141.647 601.024 141.529 601.341 141.496C601.658 141.463 601.978 141.517 602.267 141.651L665.459 170.623C665.69 170.727 665.896 170.882 666.061 171.075C666.226 171.268 666.347 171.495 666.414 171.74L696.665 287.51C696.72 287.731 696.731 287.961 696.696 288.186C696.662 288.411 696.584 288.626 696.466 288.821C696.348 289.016 696.193 289.185 696.009 289.32C695.826 289.454 695.618 289.551 695.397 289.605L694.945 289.773Z" fill="#263238"/>
<path d="M609.78 265.254C609.369 265.253 608.973 265.104 608.664 264.833C608.356 264.563 608.156 264.189 608.102 263.782L591.585 162.623C591.518 162.303 591.522 161.973 591.596 161.655L599.769 142.384C599.855 142.173 599.982 141.982 600.142 141.821C600.302 141.66 600.493 141.532 600.703 141.444C600.912 141.357 601.137 141.311 601.365 141.311C601.592 141.31 601.817 141.355 602.027 141.441C602.454 141.623 602.793 141.965 602.969 142.394C603.146 142.823 603.146 143.305 602.969 143.734L594.974 162.558L611.393 263.232C611.469 263.682 611.364 264.144 611.1 264.517C610.837 264.889 610.437 265.143 609.987 265.222L609.78 265.254Z" fill="#263238"/>
<path d="M729.756 208.736C729.388 208.728 729.031 208.606 728.736 208.386C728.441 208.165 728.222 207.858 728.11 207.507L699.816 117.278L666.157 173.051C665.915 173.434 665.531 173.707 665.09 173.81C664.649 173.914 664.184 173.84 663.797 173.604C663.41 173.368 663.131 172.99 663.02 172.55C662.909 172.111 662.975 171.645 663.204 171.254L698.73 112.39C698.906 112.113 699.155 111.891 699.45 111.748C699.744 111.604 700.073 111.546 700.399 111.579C700.733 111.617 701.049 111.75 701.31 111.961C701.571 112.172 701.766 112.453 701.873 112.772L731.304 206.471C731.44 206.908 731.398 207.382 731.186 207.788C730.974 208.194 730.609 208.499 730.172 208.637L729.756 208.736Z" fill="#263238"/>
<path d="M744.327 219.794C743.963 219.785 743.611 219.661 743.322 219.441C743.033 219.22 742.82 218.914 742.715 218.566L710.18 115.114L700.291 115.002C699.83 114.987 699.392 114.792 699.073 114.459C698.753 114.126 698.577 113.68 698.583 113.219C698.597 112.766 698.788 112.337 699.115 112.024C699.442 111.711 699.878 111.539 700.331 111.544L711.464 111.671C711.825 111.673 712.175 111.789 712.465 112.004C712.755 112.219 712.969 112.52 713.075 112.865L745.978 217.531C746.114 217.968 746.072 218.442 745.86 218.848C745.648 219.254 745.283 219.559 744.846 219.696C744.681 219.761 744.504 219.795 744.327 219.794Z" fill="#263238"/>
<path d="M688.87 249.384C688.569 249.382 688.274 249.308 688.008 249.167C687.616 248.925 687.334 248.539 687.223 248.092C687.111 247.645 687.18 247.172 687.413 246.774L715.335 199.754C715.569 199.357 715.951 199.07 716.396 198.955C716.842 198.84 717.315 198.907 717.711 199.141C718.107 199.375 718.395 199.756 718.509 200.202C718.624 200.647 718.557 201.12 718.324 201.517L690.366 248.537C690.213 248.796 689.994 249.011 689.731 249.16C689.469 249.309 689.172 249.386 688.87 249.384Z" fill="#263238"/>
<path d="M684.539 228.864C684.234 228.863 683.936 228.775 683.678 228.612C683.481 228.499 683.309 228.347 683.173 228.166C683.036 227.986 682.937 227.779 682.881 227.559C682.826 227.339 682.815 227.11 682.849 226.886C682.884 226.662 682.963 226.447 683.082 226.254L711.005 179.199C711.247 178.807 711.633 178.525 712.08 178.414C712.528 178.302 713 178.371 713.398 178.604C713.79 178.846 714.072 179.232 714.183 179.679C714.295 180.126 714.226 180.599 713.993 180.996L686.036 228.017C685.882 228.276 685.663 228.491 685.4 228.64C685.138 228.788 684.841 228.866 684.539 228.864Z" fill="#263238"/>
<path d="M680.21 208.206C679.91 208.2 679.615 208.126 679.348 207.988C678.956 207.746 678.674 207.361 678.563 206.913C678.452 206.466 678.52 205.993 678.753 205.596L706.676 158.575C706.918 158.183 707.304 157.901 707.751 157.79C708.198 157.679 708.671 157.747 709.068 157.98C709.265 158.093 709.437 158.245 709.574 158.426C709.711 158.607 709.81 158.813 709.865 159.033C709.921 159.253 709.932 159.482 709.897 159.706C709.862 159.93 709.783 160.145 709.664 160.338L681.706 207.393C681.551 207.648 681.331 207.858 681.068 208.001C680.805 208.144 680.509 208.214 680.21 208.206Z" fill="#263238"/>
<path d="M675.881 187.582C675.576 187.58 675.277 187.493 675.019 187.33C674.823 187.217 674.651 187.065 674.514 186.884C674.377 186.703 674.278 186.497 674.223 186.277C674.167 186.057 674.156 185.828 674.191 185.604C674.225 185.38 674.304 185.165 674.424 184.972L702.381 137.951C702.491 137.752 702.641 137.577 702.82 137.436C703 137.296 703.206 137.193 703.426 137.135C703.646 137.076 703.876 137.062 704.102 137.094C704.327 137.126 704.544 137.203 704.739 137.321C705.132 137.563 705.413 137.949 705.525 138.396C705.636 138.843 705.568 139.316 705.335 139.714L677.412 186.735C677.252 186.997 677.027 187.213 676.759 187.361C676.49 187.51 676.188 187.586 675.881 187.582Z" fill="#263238"/>
<path d="M675.245 249.471C675.016 249.514 674.781 249.512 674.554 249.463L629.421 228.789C629.002 228.601 628.674 228.254 628.51 227.824C628.346 227.394 628.36 226.917 628.548 226.497C628.737 226.077 629.084 225.75 629.514 225.586C629.944 225.422 630.421 225.436 630.841 225.624L676.007 246.333C676.355 246.507 676.635 246.792 676.8 247.144C676.966 247.496 677.008 247.894 676.92 248.273C676.832 248.652 676.618 248.99 676.314 249.232C676.01 249.475 675.633 249.608 675.244 249.609L675.245 249.471Z" fill="#263238"/>
<path d="M673.498 229.845C673.269 229.894 673.033 229.891 672.806 229.837L627.71 208.99C627.323 208.781 627.031 208.431 626.893 208.014C626.754 207.596 626.78 207.141 626.966 206.742C627.151 206.343 627.482 206.029 627.89 205.866C628.298 205.702 628.754 205.7 629.164 205.86L674.296 226.534C674.754 226.631 675.154 226.906 675.409 227.298C675.664 227.69 675.752 228.167 675.655 228.624C675.558 229.082 675.284 229.482 674.892 229.737C674.5 229.992 674.023 230.081 673.565 229.984L673.498 229.845Z" fill="#263238"/>
<path d="M665.499 209.559C665.258 209.552 665.023 209.49 664.81 209.379L619.643 188.704C619.435 188.609 619.248 188.473 619.092 188.306C618.937 188.138 618.816 187.941 618.737 187.727C618.576 187.294 618.594 186.815 618.787 186.395C618.98 185.975 619.332 185.649 619.765 185.489C620.198 185.328 620.677 185.347 621.097 185.539L666.228 206.248C666.643 206.442 666.966 206.79 667.129 207.218C667.292 207.645 667.282 208.12 667.101 208.54C666.953 208.84 666.725 209.094 666.442 209.274C666.16 209.453 665.834 209.552 665.499 209.559Z" fill="#263238"/>
<path d="M662.52 188.778C662.291 188.821 662.056 188.818 661.829 188.77L616.696 168.096C616.488 168.003 616.3 167.871 616.143 167.705C615.987 167.54 615.864 167.345 615.783 167.132C615.702 166.919 615.664 166.692 615.671 166.464C615.678 166.236 615.73 166.012 615.823 165.804C616.018 165.389 616.365 165.067 616.793 164.904C617.221 164.741 617.695 164.751 618.116 164.931L663.282 185.64C663.696 185.833 664.017 186.183 664.175 186.613C664.332 187.042 664.312 187.517 664.12 187.932C663.958 188.207 663.722 188.432 663.44 188.581C663.157 188.73 662.839 188.799 662.52 188.778Z" fill="#263238"/>
</svg>
