<svg width="922" height="442" viewBox="0 0 922 442" fill="none" xmlns="http://www.w3.org/2000/svg">
<path d="M811.649 36.3246L817.228 60.6252L871.048 21.2352L811.649 36.3246Z" fill="#263238"/>
<path d="M814.762 42.6192L817.228 60.6252L836.461 45.9823L814.762 42.6192Z" fill="white"/>
<path d="M817.228 61.3692C817.134 61.3914 817.036 61.3914 816.942 61.3692C816.821 61.32 816.714 61.2408 816.633 61.1392C816.551 61.0376 816.497 60.917 816.476 60.7889L814.025 42.7829C814.009 42.6674 814.02 42.5499 814.056 42.4391C814.093 42.3283 814.154 42.2271 814.235 42.143C814.321 42.0632 814.423 42.0032 814.535 41.9672C814.647 41.9311 814.765 41.92 814.882 41.9347L836.581 45.2978C836.728 45.3195 836.864 45.3833 836.973 45.4812C837.083 45.5791 837.161 45.7068 837.198 45.8484C837.236 45.9893 837.231 46.1385 837.183 46.2764C837.135 46.4144 837.046 46.5348 836.927 46.6222L817.679 61.28C817.54 61.3521 817.384 61.3831 817.228 61.3692ZM815.649 43.512L817.799 59.2561L834.596 46.4436L815.649 43.512Z" fill="#263238"/>
<path d="M802.085 19.2709L811.649 36.3246L871.048 21.2352L802.085 19.2709Z" fill="white"/>
<path d="M811.649 37.0686C811.514 37.0674 811.382 37.031 811.265 36.9631C811.149 36.8951 811.053 36.7981 810.987 36.6817L801.513 19.6281C801.443 19.5166 801.405 19.3876 801.405 19.256C801.405 19.1244 801.443 18.9955 801.513 18.884C801.584 18.7741 801.682 18.6838 801.798 18.6213C801.913 18.5589 802.043 18.5264 802.175 18.5269L871.138 20.4912C871.318 20.497 871.489 20.5662 871.622 20.6863C871.754 20.8064 871.839 20.9694 871.86 21.1459C871.884 21.3242 871.84 21.5048 871.737 21.6531C871.635 21.8014 871.48 21.907 871.304 21.9495L811.889 37.0388C811.815 37.0748 811.73 37.0852 811.649 37.0686ZM803.393 20.0447L812.04 35.4614L865.71 21.8304L803.393 20.0447Z" fill="#263238"/>
<path d="M871.048 21.2352L825.664 66.2056L814.762 42.6192L871.048 21.2352Z" fill="white"/>
<path d="M825.664 66.9495H825.574C825.456 66.9287 825.346 66.8799 825.251 66.8073C825.157 66.7347 825.082 66.6405 825.032 66.5328L814.13 42.9465C814.09 42.8524 814.069 42.7511 814.069 42.6488C814.069 42.5466 814.09 42.4453 814.13 42.3512C814.169 42.2575 814.226 42.1724 814.298 42.1008C814.37 42.0292 814.456 41.9727 814.551 41.9346L870.837 20.5506C871 20.4925 871.177 20.4902 871.341 20.5443C871.505 20.5983 871.645 20.7053 871.74 20.8482C871.833 20.9901 871.874 21.1598 871.855 21.3282C871.836 21.4966 871.758 21.6531 871.635 21.7708L826.205 66.7263C826.135 66.7982 826.051 66.8551 825.958 66.8935C825.865 66.9319 825.765 66.951 825.664 66.9495ZM815.784 43.0209L825.905 64.9257L868.01 23.2589L815.784 43.0209Z" fill="#263238"/>
<path d="M818.581 436.653C817.576 436.662 816.572 436.607 815.574 436.489L815.739 435.001C817.192 435.164 818.656 435.199 820.115 435.105L820.205 436.594L818.581 436.653ZM824.837 436.013L824.536 434.525C825.983 434.233 827.414 433.865 828.822 433.424L829.273 434.838C827.818 435.311 826.337 435.703 824.837 436.013ZM833.574 433.32L833.003 431.951C834.326 431.415 835.694 430.805 837.078 430.135L837.739 431.475C836.326 432.159 834.927 432.784 833.574 433.32ZM841.77 429.376L841.033 428.082C842.326 427.367 843.619 426.594 844.897 425.835L845.694 427.099C844.391 427.893 843.083 428.652 841.77 429.376ZM849.514 424.674L848.672 423.424C849.92 422.605 851.153 421.772 852.371 420.909L853.243 422.114C852.01 422.992 850.762 423.841 849.514 424.674ZM856.898 419.466L855.995 418.275C857.213 417.382 858.401 416.474 859.574 415.567L860.507 416.742C859.273 417.665 858.07 418.573 856.898 419.466ZM232.063 417.471V415.983C233.567 415.983 235.071 415.983 236.574 415.894V417.382C235.086 417.471 233.567 417.471 232.063 417.471ZM227.552 417.471H225.296L223.04 417.397V415.909L225.296 415.983H227.537L227.552 417.471ZM241.086 417.204L240.995 415.716C242.499 415.626 244.003 415.522 245.507 415.403L245.642 416.891C244.138 416.98 242.634 417.085 241.116 417.174L241.086 417.204ZM218.454 417.129L213.942 416.817L214.048 415.329L218.559 415.626L218.454 417.129ZM250.123 416.445L249.943 414.957C251.447 414.793 252.95 414.614 254.454 414.406L254.665 415.894C253.146 416.058 251.642 416.251 250.153 416.415L250.123 416.445ZM209.431 416.445C207.927 416.296 206.424 416.147 204.92 415.969L205.085 414.48C206.589 414.644 208.093 414.808 209.597 414.942L209.431 416.445ZM200.408 415.418C198.905 415.224 197.401 415.016 195.897 414.793L196.123 413.305C197.626 413.528 199.13 413.736 200.634 413.93L200.408 415.418ZM259.056 415.21L258.815 413.721C260.319 413.469 261.823 413.216 263.236 412.918L263.522 414.406C262.078 414.674 260.61 414.932 259.116 415.18L259.056 415.21ZM191.461 414.079C189.957 413.826 188.453 413.573 186.95 413.29L187.22 411.802L191.656 412.591L191.461 414.079ZM863.98 413.974L863.033 412.829L866.507 410.001L867.469 411.132C866.401 412.04 865.228 413.007 864.04 413.945L863.98 413.974ZM267.958 413.469L267.627 411.98C269.131 411.653 270.53 411.296 271.988 410.939L272.349 412.427C270.951 412.754 269.477 413.111 268.018 413.439L267.958 413.469ZM182.574 412.427C181.07 412.129 179.566 411.817 178.137 411.489L178.468 410.001C179.972 410.329 181.401 410.641 182.874 410.939L182.574 412.427ZM276.725 411.251L276.319 409.763C277.823 409.361 279.191 408.93 280.62 408.483L281.071 409.971C279.703 410.388 278.199 410.82 276.785 411.221L276.725 411.251ZM173.731 410.463C172.228 410.12 170.814 409.748 169.355 409.376L169.731 407.888C171.235 408.26 172.634 408.632 174.092 408.974L173.731 410.463ZM285.372 408.528L284.861 407.129C286.244 406.638 287.643 406.102 289.041 405.522L289.612 406.906C288.259 407.457 286.846 407.992 285.432 408.543L285.372 408.528ZM870.943 408.26L869.965 407.114L873.394 404.227L874.371 405.344L870.943 408.26ZM164.979 408.26C163.476 407.858 162.077 407.457 160.634 407.025L161.07 405.537C162.498 405.969 163.942 406.37 165.385 406.772L164.979 408.26ZM156.393 405.567C154.964 405.12 153.521 404.659 152.092 404.183L152.573 402.769C153.997 403.245 155.425 403.707 156.859 404.153L156.393 405.567ZM293.853 405.001L293.222 403.647C294.575 403.022 295.913 402.367 297.252 401.698L297.928 403.022C296.56 403.766 295.207 404.421 293.823 405.061L293.853 405.001ZM147.806 402.724C146.393 402.233 144.964 401.727 143.551 401.236L144.077 399.838C145.475 400.358 146.889 400.864 148.303 401.326L147.806 402.724ZM877.89 402.367L876.928 401.221L877.83 400.477L880.341 398.335L881.334 399.451L878.793 401.608L877.89 402.367ZM301.943 400.879L301.207 399.585C302.515 398.855 303.793 398.096 305.071 397.338L305.853 398.617C304.515 399.451 303.222 400.21 301.898 400.939L301.943 400.879ZM139.28 399.614L135.084 397.948L135.656 396.564C137.039 397.129 138.438 397.68 139.836 398.215L139.28 399.614ZM884.672 396.445L883.65 395.358C884.747 394.361 885.83 393.335 886.913 392.293L887.966 393.364C886.873 394.446 885.775 395.492 884.672 396.504V396.445ZM309.658 396.236L308.831 394.986C310.094 394.183 311.342 393.364 312.575 392.516L313.417 393.751C312.169 394.659 310.921 395.477 309.658 396.296V396.236ZM130.904 396.236L126.768 394.436L127.385 393.082C128.753 393.692 130.122 394.287 131.505 394.867L130.904 396.236ZM122.648 392.561C121.28 391.921 119.926 391.281 118.573 390.611L119.235 389.287L123.295 391.207L122.648 392.561ZM317.132 391.207L316.259 390.001C317.478 389.138 318.681 388.26 319.884 387.367L320.786 388.558L317.132 391.207ZM891.169 390.21L890.086 389.183C891.124 388.111 892.146 387.04 893.094 385.939L894.206 386.936C893.244 388.082 892.206 389.198 891.169 390.239V390.21ZM114.528 388.602C113.189 387.918 111.851 387.233 110.513 386.519L111.234 385.21C112.558 385.909 113.881 386.608 115.219 387.278L114.528 388.602ZM324.38 385.849L323.463 384.674L327.011 381.936L327.944 383.096L324.38 385.849ZM106.543 384.361L102.618 382.144L103.37 380.849C104.678 381.593 105.971 382.337 107.279 383.052L106.543 384.361ZM897.274 383.558L896.131 382.605C897.109 381.474 898.056 380.329 898.988 379.168L900.161 380.105C899.259 381.326 898.251 382.471 897.274 383.602V383.558ZM331.478 380.269L330.53 379.108C331.703 378.186 332.861 377.233 334.034 376.296L334.981 377.456L331.478 380.269ZM98.738 379.837C97.4448 379.064 96.1515 378.275 94.8884 377.486L95.6854 376.221C96.9485 377.01 98.2267 377.799 99.505 378.558L98.738 379.837ZM902.928 376.534L901.725 375.641C902.612 374.451 903.485 373.245 904.327 372.025L905.56 372.873C904.718 374.168 903.77 375.388 902.928 376.593V376.534ZM91.0838 375.046L87.3244 372.546L88.1665 371.311C89.4146 372.159 90.6477 372.977 91.9109 373.796L91.0838 375.046ZM338.47 374.599L337.508 373.454L340.997 370.626L341.959 371.772L338.47 374.599ZM83.61 369.986L79.9558 367.352L80.8581 366.147C82.0611 367.04 83.2642 367.903 84.4822 368.766L83.61 369.986ZM908.056 369.093L906.778 368.364C907.56 367.114 908.282 365.834 909.064 364.555L910.372 365.284C909.62 366.608 908.853 367.888 908.056 369.168V369.093ZM345.433 368.93L344.485 367.784C345.658 366.792 346.831 365.854 348.004 364.971L348.937 366.132L345.433 368.93ZM76.3468 364.644C75.1588 363.736 73.9708 362.814 72.7979 361.876L73.7302 360.715C74.9032 361.638 76.0761 362.561 77.2641 363.468L76.3468 364.644ZM352.455 363.334L351.523 362.174L355.057 359.391L355.989 360.567L352.455 363.334ZM912.507 361.251L911.169 360.596C911.846 359.272 912.477 357.918 913.079 356.593L914.447 357.189C913.846 358.617 913.199 359.986 912.507 361.325V361.251ZM69.2941 359.034C68.1362 358.067 66.9933 357.099 65.8655 356.058L66.8429 354.942C67.9707 355.924 69.1136 356.876 70.2565 357.828L69.2941 359.034ZM359.523 357.799L358.591 356.638L362.14 353.885L363.072 355.061C361.899 356.043 360.711 356.951 359.538 357.948L359.523 357.799ZM62.4669 353.141C61.3541 352.144 60.2413 351.117 59.1436 350.165L60.1812 349.078C61.2639 350.09 62.3616 351.102 63.4744 352.055L62.4669 353.141ZM916.161 353.022L914.763 352.501C915.289 351.102 915.785 349.703 916.267 348.319L917.77 348.766C917.304 350.254 916.718 351.683 916.176 353.096L916.161 353.022ZM366.636 352.322L365.719 351.147L369.298 348.424L370.2 349.599L366.636 352.322ZM55.8954 346.98C54.8277 345.939 53.7601 344.867 52.7074 343.796L53.7901 342.769L56.9481 345.924L55.8954 346.98ZM373.794 346.906L372.892 345.715C374.08 344.808 375.283 343.915 376.486 343.022L377.388 344.212L373.794 346.906ZM918.913 344.555L917.41 344.197C917.785 342.709 918.101 341.221 918.372 339.882L919.876 340.15C919.62 341.578 919.289 343.066 918.913 344.555ZM381.027 341.578L380.125 340.373L383.749 337.724L384.651 338.93L381.027 341.578ZM49.6247 340.626C48.5871 339.525 47.5795 338.424 46.6171 337.308L47.7449 336.311C48.7475 337.432 49.75 338.533 50.7525 339.614L49.6247 340.626ZM388.29 336.34L387.403 335.135L391.057 332.516L391.93 333.721L388.29 336.34ZM920.628 335.522H919.124C919.304 334.034 919.425 332.546 919.515 331.058L921.019 331.147C920.883 332.65 920.763 334.138 920.583 335.522H920.628ZM43.6095 333.915C42.6321 332.769 41.6697 331.623 40.7223 330.462L41.8952 329.525C42.8426 330.686 43.79 331.816 44.7675 332.962L43.6095 333.915ZM395.599 331.162L394.727 329.941L398.426 327.367L399.283 328.587L395.599 331.162ZM37.9253 326.95C36.9929 325.76 36.0907 324.569 35.1884 323.364L36.4065 322.486C37.2937 323.677 38.1959 324.867 39.1133 326.043L37.9253 326.95ZM919.575 326.653C919.575 325.165 919.575 323.677 919.425 322.188L920.928 322.084C921.019 323.572 921.079 325.061 921.079 326.549L919.575 326.653ZM403.012 326.013L402.155 324.793L405.87 322.248L406.727 323.483C405.448 324.316 404.215 325.209 403.012 326.013ZM410.456 320.983L409.614 319.748L413.358 317.263L414.2 318.498L410.456 320.983ZM32.5869 319.718C31.7297 318.498 30.8726 317.263 30.0455 316.013L31.2936 315.194C32.1207 316.43 32.9628 317.65 33.82 318.87L32.5869 319.718ZM919.019 317.769C918.838 316.281 918.628 314.793 918.372 313.394L919.876 313.141C920.131 314.629 920.357 316.117 920.537 317.605L919.019 317.769ZM417.93 315.983L417.103 314.733L420.576 312.501L420.892 312.307L421.704 313.543L421.389 313.751L417.93 315.983ZM27.5492 312.188C26.7372 310.924 25.9552 309.644 25.1883 308.364L26.4815 307.605C27.2535 308.875 28.0354 310.14 28.8274 311.4L27.5492 312.188ZM425.494 311.147L424.682 309.897L428.501 307.501L429.298 308.751L425.494 311.147ZM917.47 309.049C917.139 307.635 916.763 306.191 916.357 304.763L917.861 304.361C918.282 305.849 918.658 307.337 919.004 308.721L917.47 309.049ZM433.088 306.444L432.291 305.18L436.095 302.888L436.877 304.153L433.088 306.444ZM22.9176 304.525C22.1506 303.185 21.4138 301.891 20.7521 300.596L22.0755 299.897C22.7672 301.191 23.4589 302.456 24.1807 303.736L23.5642 304.168L22.9176 304.525ZM440.787 301.772L439.99 300.507L443.855 298.185L444.637 299.465C443.344 300.224 442.111 300.998 440.787 301.772ZM915.034 300.596C914.552 299.212 914.041 297.813 913.53 296.444L914.928 295.894C915.485 297.293 915.996 298.706 916.432 300.12L915.034 300.596ZM448.502 297.174L447.735 295.894L451.615 293.632L452.381 294.912L448.502 297.174ZM18.692 296.593C18.0303 295.254 17.3837 293.9 16.7521 292.546L18.1055 291.921C18.7371 293.28 19.3837 294.619 20.0454 295.938L18.692 296.593ZM456.291 292.665L455.539 291.385L459.449 289.153L460.186 290.447L456.291 292.665ZM911.785 292.352C911.169 290.998 910.537 289.674 909.876 288.349L911.214 287.679C911.886 289.019 912.532 290.373 913.154 291.742L911.785 292.352ZM14.9024 288.453C14.316 287.084 13.7295 285.7 13.1731 284.316L14.5716 283.751C15.128 285.135 15.6994 286.504 16.2859 287.873L14.9024 288.453ZM464.096 288.245L463.359 286.95L467.299 284.763L468.021 286.072L464.096 288.245ZM907.71 284.421C906.988 283.126 906.206 281.846 905.455 280.596L906.748 279.822C907.53 281.087 908.251 282.397 909.033 283.706L907.71 284.421ZM471.915 283.915L471.179 282.605L475.149 280.477L475.87 281.772L471.915 283.915ZM11.549 280.12C11.0377 278.721 10.5264 277.307 10.0452 275.894L11.4588 275.418C11.94 276.816 12.4513 278.215 12.9626 279.614L11.549 280.12ZM479.901 279.673L479.194 278.349L483.179 276.266L483.886 277.59C482.547 278.275 481.209 278.974 479.901 279.673ZM903.109 276.861C902.282 275.626 901.424 274.406 900.552 273.215L901.755 272.337C902.657 273.557 903.515 274.778 904.357 276.028L903.109 276.861ZM487.871 275.522L487.179 274.197C488.517 273.513 489.855 272.828 491.209 272.159L491.886 273.483L487.871 275.522ZM8.63168 271.638C8.18055 270.15 7.74445 268.781 7.33843 267.337L8.84221 266.935C9.24823 268.423 9.68432 269.778 10.1355 271.191L8.63168 271.638ZM495.856 271.474L495.194 270.135L499.224 268.156L499.901 269.48L495.856 271.474ZM897.785 269.688C896.853 268.528 895.906 267.382 894.928 266.266L896.071 265.298C897.063 266.429 898.026 267.59 898.973 268.766L897.785 269.688ZM503.946 267.516L503.284 266.176L507.359 264.242L508.006 265.581L503.946 267.516ZM512.081 263.676L511.435 262.322L515.54 260.447L516.172 261.787L512.081 263.676ZM6.0903 263.022C5.71436 261.534 5.35345 260.12 5.00758 258.661L6.51136 258.319C6.84219 259.807 7.2031 261.206 7.57904 262.635L6.0903 263.022ZM891.951 263.022C890.913 261.935 889.875 260.879 888.823 259.837L889.875 258.781C890.943 259.837 892.011 260.909 893.048 261.995L891.951 263.022ZM520.262 260.045L519.645 258.691C521.014 258.066 522.397 257.456 523.766 256.861L524.382 258.215L520.262 260.045ZM885.605 256.757C884.492 255.76 883.379 254.792 882.236 253.781L883.199 252.635C884.356 253.602 885.499 254.584 886.612 255.611L885.605 256.757ZM528.548 256.31L527.946 254.941L532.097 253.17L532.683 254.539L528.548 256.31ZM4.07524 254.286C3.75944 252.798 3.47372 251.31 3.20304 249.822L4.70682 249.539C4.9775 251.028 5.26322 252.516 5.57901 253.914L4.07524 254.286ZM536.833 252.798L536.247 251.429L540.428 249.703L540.999 251.087L536.833 252.798ZM878.762 251.028C877.589 250.12 876.402 249.212 875.199 248.349L876.086 247.144C877.299 248.027 878.502 248.934 879.695 249.867L878.762 251.028ZM545.18 249.406L544.608 248.022C546.007 247.471 547.405 246.906 548.804 246.37L549.36 247.754C547.961 248.289 546.563 248.84 545.18 249.406ZM553.555 246.132L553.014 244.733L557.24 243.141L557.781 244.539L553.555 246.132ZM871.544 245.775C870.296 244.941 869.063 244.123 867.8 243.334L868.612 242.069C869.875 242.873 871.138 243.706 872.386 244.554L871.544 245.775ZM2.36093 245.477C2.12033 243.989 1.90979 242.501 1.69926 241.013L3.20304 240.804C3.41357 242.292 3.6241 243.781 3.86471 245.269L2.36093 245.477ZM561.932 242.977L561.42 241.578L565.661 240.09L566.172 241.489L561.932 242.977ZM863.92 240.998C862.627 240.239 861.334 239.51 860.025 238.78L860.762 237.486C862.086 238.2 863.394 238.974 864.687 239.718L863.92 240.998ZM570.428 239.956L569.917 238.557L574.187 237.069L574.684 238.483L570.428 239.956ZM578.954 237.069L578.473 235.581L582.774 234.182L583.225 235.67L578.954 237.069ZM856.07 236.682C854.747 235.998 853.409 235.328 852.055 234.688L852.717 233.349C854.07 234.004 855.424 234.673 856.762 235.358L856.07 236.682ZM1.12783 236.593C0.962418 235.105 0.812035 233.617 0.676695 232.129L2.18047 231.98C2.31581 233.468 2.4662 234.956 2.64665 236.444L1.12783 236.593ZM587.601 234.316L587.15 232.828L591.466 231.504L591.902 232.992L587.601 234.316ZM848.07 232.828C846.702 232.218 845.333 231.638 843.95 231.057L844.536 229.688C845.92 230.274 847.303 230.869 848.687 231.474L848.07 232.828ZM596.218 231.727L595.782 230.239L600.128 228.989L600.549 230.477L596.218 231.727ZM839.83 229.391C838.431 228.84 837.033 228.319 835.619 227.813L836.145 226.414C837.559 226.92 838.973 227.456 840.371 228.007L839.83 229.391ZM604.925 229.257L604.519 227.769L608.88 226.578L609.271 228.066L604.925 229.257ZM0.406015 227.694C0.315788 226.206 0.225564 224.718 0.150375 223.23H1.65415C1.72934 224.718 1.80453 226.206 1.90979 227.694H0.406015ZM613.541 226.905L613.15 225.417L617.526 224.316L617.902 225.804L613.541 226.905ZM831.303 226.31C829.799 225.834 828.461 225.373 827.018 224.926L827.484 223.438C828.987 223.885 830.356 224.346 831.784 224.822L831.303 226.31ZM622.278 224.733L621.917 223.245C623.421 222.888 624.925 222.545 626.323 222.218L626.654 223.706L622.278 224.733ZM822.717 223.632C821.213 223.215 819.844 222.813 818.401 222.426L818.792 220.938C820.296 221.325 821.694 221.727 823.138 222.144L822.717 223.632ZM631.045 222.724L630.729 221.236L635.135 220.283L635.451 221.771L631.045 222.724ZM814.04 221.31L809.664 220.283L810.01 218.795L814.401 219.837L814.04 221.31ZM639.857 220.864L639.557 219.376L643.993 218.513L644.278 220.001L639.857 220.864ZM805.273 219.376L800.867 218.498L801.152 217.01C802.656 217.292 804.16 217.59 805.664 217.902L805.273 219.376ZM648.7 219.227L648.429 217.739L652.94 216.95L653.196 218.438L648.7 219.227ZM0 218.721C0 217.233 0 215.745 0 214.257H1.50378C1.50378 215.745 1.50378 217.233 1.50378 218.721H0ZM657.647 217.649L657.406 216.161L661.918 215.462L662.143 216.95L657.647 217.649ZM796.521 217.649C795.017 217.396 793.513 217.143 792.1 216.92L792.325 215.432C793.829 215.67 795.333 215.908 796.837 216.176L796.521 217.649ZM666.549 216.31L666.339 214.822L670.85 214.212L671.061 215.7L666.549 216.31ZM787.649 216.236L783.137 215.611L783.348 214.123L787.859 214.748L787.649 216.236ZM675.467 215.135L675.286 213.646L679.798 213.126L679.978 214.614C678.399 214.763 676.91 214.926 675.422 215.09L675.467 215.135ZM778.716 215.03L774.205 214.51L774.37 213.021L778.882 213.542L778.716 215.03ZM684.414 214.123L684.264 212.635L688.775 212.203L688.911 213.691L684.414 214.123ZM769.769 214.033C768.265 213.87 766.761 213.736 765.257 213.602L765.393 212.114L769.904 212.545L769.769 214.033ZM693.377 213.304L693.256 211.816C694.76 211.682 696.264 211.578 697.768 211.474L697.873 212.962L693.377 213.304ZM760.806 213.215L756.295 212.873L756.4 211.385L760.911 211.712L760.806 213.215ZM702.264 212.664L702.174 211.176L706.685 210.923V212.411C705.272 212.486 703.768 212.56 702.264 212.664ZM751.738 212.575L747.227 212.337L747.302 210.849L751.814 211.087L751.738 212.575ZM711.287 212.203V210.715L715.798 210.566V212.054L711.287 212.203ZM742.866 212.203L738.355 212.069V210.581L742.866 210.73V212.203ZM720.309 212.01V210.521H724.821V212.01H720.309ZM733.843 212.01H729.332V210.521H733.843V212.01ZM1.50378 209.792H0C0 208.304 0.0902244 206.816 0.150375 205.328H1.65415C1.50378 206.816 1.50378 208.304 1.50378 209.792ZM1.89476 200.864L0.390985 200.774C0.481212 199.286 0.601516 197.798 0.721818 196.31L2.2256 196.429C2.01507 197.932 1.9098 199.42 1.81957 200.893L1.89476 200.864ZM2.66168 191.935L1.1579 191.771C1.32332 190.283 1.50377 188.795 1.69926 187.307L3.20304 187.501C2.91732 189.093 2.73688 190.566 2.5865 192.039L2.66168 191.935ZM3.8196 183.111L2.31582 182.887C2.5464 181.409 2.787 179.921 3.03763 178.423L4.5414 178.676C4.21057 180.283 3.96997 181.742 3.7444 183.215L3.8196 183.111ZM5.32337 174.346L3.8196 174.063C4.12035 172.575 4.42111 171.087 4.75194 169.673L6.25572 170.001C5.87978 171.548 5.57902 172.992 5.27826 174.45L5.32337 174.346ZM7.26325 165.655L5.75947 165.313C6.10534 163.825 6.48128 162.337 6.87226 160.968L8.37604 161.355C7.93994 162.887 7.51889 164.331 7.21814 165.759L7.26325 165.655ZM9.57907 157.069L8.07529 156.652C8.49635 155.224 8.93244 153.795 9.38357 152.367L10.8873 152.813C10.3911 154.331 9.955 155.745 9.53394 157.173L9.57907 157.069ZM12.2859 148.587L10.7821 148.111C11.2633 146.697 11.7746 145.283 12.2859 143.884L13.6994 144.39C13.2082 145.888 12.722 147.322 12.2407 148.691L12.2859 148.587ZM15.2934 140.239L13.8949 139.703C14.4463 138.304 15.0177 136.92 15.6092 135.551L16.9927 136.116C16.4363 137.59 15.8799 138.959 15.3235 140.343L15.2934 140.239ZM18.7822 132.039L17.3987 131.429C18.0153 130.075 18.6619 128.721 19.3085 127.366L20.6619 128.006C20.0454 129.45 19.4138 130.789 18.8123 132.143L18.7822 132.039ZM22.6469 124.018L21.3085 123.349C21.9852 122.009 22.692 120.685 23.3988 119.375L24.7221 120.075C24.0604 121.488 23.3537 122.828 22.677 124.122L22.6469 124.018ZM26.9026 116.191L25.5943 115.462C26.3462 114.152 27.0981 112.872 27.8951 111.593L29.1733 112.366C28.4364 113.735 27.6695 115.015 26.9327 116.295L26.9026 116.191ZM31.5643 108.602L30.3011 107.798C31.1132 106.533 31.9402 105.283 32.7974 104.048L34.0305 104.881C33.2184 106.221 32.3914 107.456 31.5793 108.706L31.5643 108.602ZM639.632 101.429H638.369V99.9408H639.632H642.865V101.429H639.632ZM633.842 101.34C632.338 101.34 630.835 101.235 629.331 101.146L629.406 99.658C630.91 99.7473 632.414 99.8068 633.917 99.8515L633.842 101.34ZM647.376 101.34V99.8515C648.88 99.8515 650.384 99.7324 651.888 99.6432L651.963 101.131C650.459 101.265 648.955 101.325 647.451 101.384L647.376 101.34ZM36.5568 101.34L35.3388 100.476C36.211 99.2711 37.1132 98.0658 38.0155 96.8753L39.2185 97.7682C38.3914 99.0182 37.5042 100.149 36.632 101.34H36.5568ZM624.744 100.968C623.241 100.849 621.737 100.729 620.233 100.581L620.368 99.0926L624.88 99.4646L624.744 100.968ZM656.414 100.878L656.294 99.3902C657.797 99.286 659.301 99.1521 660.805 99.0182L660.94 100.506L656.414 100.878ZM615.737 100.119C614.233 99.9408 612.729 99.7622 611.225 99.5539L611.421 98.0658C612.925 98.2592 614.428 98.4527 615.932 98.6164L615.737 100.119ZM665.361 100.045L665.196 98.5568C666.7 98.3932 668.203 98.2146 669.707 98.0211L669.888 99.5092C668.464 99.7076 667 99.8862 665.497 100.045H665.361ZM606.714 98.914C605.23 98.6858 603.727 98.4477 602.203 98.1997L602.458 96.7116C603.962 96.9646 605.466 97.2027 606.894 97.4259L606.714 98.914ZM674.384 98.914L674.174 97.4259L678.685 96.7711L678.91 98.2592C677.497 98.4824 676.008 98.7056 674.504 98.914H674.384ZM683.407 97.5152L683.151 96.0271L687.587 95.2384L687.873 96.7265C686.429 97.0092 684.941 97.2622 683.452 97.5301L683.407 97.5152ZM597.842 97.3961C596.338 97.1134 594.834 96.8307 593.406 96.5182L593.706 95.0301C595.21 95.3426 596.714 95.6253 598.128 95.908L597.842 97.3961ZM692.294 95.908L692.008 94.4199L696.414 93.5122L696.715 95.0003L692.294 95.908ZM588.985 95.5807L584.578 94.5687L584.924 93.0806C586.428 93.4378 587.842 93.78 589.315 94.1074L588.985 95.5807ZM42.1058 94.2562L40.9328 93.3336C41.8652 92.158 42.8276 90.9973 43.79 89.8515L44.9479 90.8038C43.9253 91.9497 42.978 93.0658 42.1058 94.2562ZM701.227 94.0479L700.911 92.5598L705.272 91.5777L705.617 93.0658L701.227 94.0479ZM580.293 93.4527L575.917 92.3068L576.323 90.8187C577.827 91.2205 579.21 91.5925 580.669 91.9646L580.293 93.4527ZM710.039 91.9646L709.678 90.4765L714.039 89.3902L714.415 90.8782L710.039 91.9646ZM571.571 91.0717L567.24 89.7919L567.676 88.3038L571.992 89.5836L571.571 91.0717ZM718.791 89.7324L718.4 88.2443L722.746 87.0687L723.152 88.5568L718.791 89.7324ZM562.924 88.4526C561.42 88.0062 560.052 87.5449 558.623 87.0687L559.104 85.655C560.518 86.1312 561.947 86.5925 563.375 87.0389L562.924 88.4526ZM47.8652 87.411L46.7374 86.4288C47.7299 85.3128 48.7374 84.1967 49.745 83.0955L50.8578 84.1074C49.7901 85.2086 48.7976 86.3098 47.8051 87.4259L47.8652 87.411ZM727.573 87.3217L727.152 85.8336L731.482 84.5687L731.919 85.9824L727.573 87.3217ZM554.292 85.6253L550.022 84.1372L550.533 82.7383L554.774 84.2264L554.292 85.6253ZM736.099 84.7175L735.663 83.3038L739.949 81.9645L740.415 83.3782L736.099 84.7175ZM545.781 82.6491C544.367 82.1431 542.954 81.6223 541.555 81.0865L542.082 79.6877L546.307 81.2651L545.781 82.6491ZM744.716 82.0389L744.25 80.5508L748.52 79.1371L749.002 80.5508L744.716 82.0389ZM53.8803 80.8931L52.7976 79.8663C53.8503 78.78 54.918 77.7234 55.9856 76.6669L57.0383 77.7234C55.9706 78.7502 54.933 79.8068 53.8803 80.8782V80.8931ZM537.345 79.4794L533.149 77.8276L533.706 76.4586L537.886 78.0955L537.345 79.4794ZM753.272 79.1669L752.776 77.6788L757.032 76.1907L757.543 77.5895L753.272 79.1669ZM528.954 76.1907L524.818 74.4347L525.39 73.0657L529.555 74.7621L528.954 76.1907ZM761.799 76.1907L761.272 74.7919L765.498 73.3038L766.039 74.7026L761.799 76.1907ZM60.2714 74.7026L59.2338 73.6312C60.3316 72.6044 61.4443 71.5925 62.5571 70.655L63.5647 71.7562C62.4519 72.5895 61.3541 73.6014 60.2714 74.6133V74.7026ZM770.265 73.0806L769.724 71.6818L773.919 70.0746L774.476 71.4586L770.265 73.0806ZM520.638 72.783L516.502 71.027L517.089 69.6579L521.224 71.4139L520.638 72.783ZM778.686 69.8068L778.13 68.4377L782.31 66.7561L782.882 68.1252L778.686 69.8068ZM512.352 69.271L508.277 67.3663L508.878 65.9972L512.939 67.7681L512.352 69.271ZM66.9482 68.7502L65.9707 67.6341C67.1136 66.652 68.2565 65.6847 69.4294 64.6579L70.3768 65.8038L66.9482 68.7502ZM787.047 66.28L786.461 64.9109L790.611 63.155L791.213 64.524L787.047 66.28ZM504.096 65.5359L499.976 63.7055L500.593 62.3514L504.698 64.1669L504.096 65.5359ZM73.8656 62.9615L72.9332 61.8008C74.1062 60.8782 75.3092 59.9555 76.5122 59.0627L77.4145 60.2383L73.8656 62.9615ZM795.348 62.7383L794.746 61.3692L798.867 59.5389L799.483 60.9079L795.348 62.7383ZM495.871 61.8157L491.735 60.0299L492.352 58.6758L496.457 60.521L495.871 61.8157ZM803.619 58.9734L802.972 57.6341C805.619 56.399 807.047 55.6996 807.062 55.6996L807.724 57.0389C807.724 57.0389 806.28 57.7978 803.619 59.0329V58.9734ZM487.66 58.1103L483.555 56.2502L484.186 54.896L488.277 56.7561L487.66 58.1103ZM81.0235 57.5448L80.1513 56.3543C81.3694 55.4764 82.6025 54.6133 83.8506 53.7502L84.6927 54.9853C83.4747 55.8633 82.2416 56.7412 81.0235 57.6043V57.5448ZM479.525 54.39L475.434 52.5299L476.051 51.1757L480.156 53.0359L479.525 54.39ZM88.5424 52.4853L87.7153 51.2502C88.9685 50.4168 90.2317 49.5984 91.5049 48.7948L92.3169 50.0597C90.9334 50.9079 89.6703 51.7263 88.4221 52.5448L88.5424 52.4853ZM471.374 50.6698L467.269 48.8097L467.885 47.4555L471.991 49.3156L471.374 50.6698ZM96.1064 47.6936L95.3245 46.4287L99.1741 44.1073L99.9411 45.387L96.1064 47.6936ZM463.163 46.9942L459.043 45.1638L459.66 43.8097L463.78 45.64L463.163 46.9942ZM454.923 43.3483L450.802 41.5477L451.404 40.1787L455.539 41.9793L454.923 43.3483ZM103.761 43.1847L103.009 41.89C104.302 41.146 105.61 40.4019 106.934 39.6876L107.655 40.9823L103.761 43.1847ZM446.622 39.8067L442.396 38.0061L442.983 36.637L447.133 38.4078L446.622 39.8067ZM111.61 38.8543L110.904 37.5448C112.227 36.8305 113.565 36.0567 114.904 35.4465L115.595 36.7709C114.182 37.4555 112.858 38.14 111.535 38.8543H111.61ZM438.321 36.3245L434.156 34.6132L434.727 33.2442L438.892 34.9555L438.321 36.3245ZM119.595 34.7471L118.919 33.4227L122.979 31.4584L123.626 32.7977L119.595 34.7471ZM429.975 32.9465L429.344 32.6936C428.156 32.2322 426.983 31.756 425.795 31.3096L426.336 29.9108L429.9 31.3096L430.531 31.5626L429.975 32.9465ZM127.716 30.893L127.084 29.5537C128.453 28.9287 129.836 28.3037 131.205 27.7084L131.821 29.0626L127.716 30.893ZM421.614 29.7025L417.404 28.2144L417.915 26.8156C419.328 27.3364 420.742 27.8424 422.155 28.3037L421.614 29.7025ZM135.896 27.2918L135.295 25.9227C136.693 25.3275 138.077 24.762 139.475 24.1965L140.032 25.5656L135.896 27.2918ZM413.118 26.637L408.877 25.1489L409.358 23.7501C410.787 24.2263 412.2 24.7173 413.629 25.2382L413.118 26.637ZM144.152 23.9138L143.596 22.5298C145.009 21.9792 146.408 21.4435 147.821 20.9227L148.348 22.3215L144.152 23.9138ZM404.516 23.7352C403.103 23.2739 401.674 22.7977 400.245 22.3513L400.697 20.8632C402.2 21.3096 403.569 21.7858 404.997 22.2471L404.516 23.7352ZM395.945 20.9971C394.516 20.5655 393.087 20.1191 391.644 19.7024L392.08 18.2143L396.396 19.5239L395.945 20.9971ZM152.543 20.7888L152.032 19.3899L156.303 17.9018L156.784 19.3899C155.39 19.8165 153.987 20.2828 152.573 20.7888H152.543ZM387.328 18.4376L383.027 17.1727L383.433 15.6846L387.779 16.9048L387.328 18.4376ZM161.055 17.9018L160.573 16.4881C162.077 16.012 163.446 15.5655 164.889 15.1191L165.34 16.6072C163.912 16.9792 162.498 17.4405 161.085 17.9018H161.055ZM378.651 16.0417L374.305 14.9108L374.681 13.4227L379.042 14.5536L378.651 16.0417ZM169.626 15.253L169.19 13.7649C170.694 13.3334 172.092 12.9316 173.536 12.5298L173.942 14.0179C172.543 14.4197 171.115 14.8215 169.671 15.253H169.626ZM369.914 13.7649L365.538 12.7233L365.884 11.2352L370.275 12.2768L369.914 13.7649ZM178.288 12.7977L177.897 11.3096L182.273 10.1935L182.649 11.6816C181.235 12.0834 179.777 12.4554 178.333 12.8423L178.288 12.7977ZM361.147 11.7262L356.756 10.759L357.072 9.27087L361.478 10.2232L361.147 11.7262ZM187.01 10.625L186.664 9.13693C188.168 8.79467 189.671 8.45241 191.085 8.13991L191.401 9.62801L187.01 10.625ZM352.425 9.85122L348.004 8.98812L348.29 7.50002L352.801 8.378L352.425 9.85122ZM195.882 8.69051L195.566 7.20241L200.002 6.32442L200.288 7.81252L195.882 8.69051ZM343.553 8.24407L339.117 7.47027L339.372 5.98217L343.884 6.77086L343.553 8.24407ZM204.679 7.08336L204.424 5.59526L208.935 4.82144L209.175 6.30954L204.679 7.08336ZM334.666 6.75597C333.162 6.51788 331.658 6.27978 330.23 6.07145L330.44 4.58335L334.951 5.26787L334.666 6.75597ZM213.536 5.56549L213.311 4.07739C214.815 3.83929 216.318 3.63097 217.822 3.42263L218.033 4.91073L213.536 5.56549ZM325.733 5.35716L321.222 4.7768L321.417 3.2887L325.929 3.88394L325.733 5.35716ZM222.559 4.33038L222.364 2.84228C223.867 2.64882 225.371 2.47025 226.875 2.30656L227.04 3.79466C225.496 3.96331 224.003 4.14188 222.559 4.33038ZM316.906 4.22621L312.395 3.72025L312.56 2.23215L317.072 2.73811L316.906 4.22621ZM231.507 3.31847L231.356 1.83037L235.868 1.4137L236.003 2.9018L231.507 3.31847ZM307.944 3.31847C306.44 3.16966 304.936 3.03572 303.432 2.91667L303.568 1.42857L308.079 1.83037L307.944 3.31847ZM240.484 2.55953L240.364 1.07143L244.875 0.74405L244.965 2.23215L240.484 2.55953ZM298.981 2.55953L294.47 2.26192L294.56 0.773818L299.071 1.07143L298.981 2.55953ZM289.958 1.99406L285.447 1.78573V0.297627L289.958 0.50596V1.99406ZM249.356 1.99406L249.281 0.50596C250.785 0.416674 252.289 0.357151 253.793 0.297627L253.868 1.78573C252.394 1.80061 250.89 1.86012 249.386 1.94941L249.356 1.99406ZM280.936 1.63691L276.424 1.53274V0.0446412L280.936 0.148808V1.63691ZM258.379 1.63691V0.148808L262.89 0.0446412V1.53274L258.379 1.63691ZM271.913 1.4881H267.402V0H271.913V1.4881Z" fill="#263238"/>
<path d="M790.066 430.796C790.893 431.367 791.755 431.885 792.648 432.347L794.111 433.054L794.727 431.697C793.394 431.097 792.116 430.381 790.908 429.558L790.066 430.796Z" fill="#263238"/>
<path d="M798.907 433.251L798.477 434.707C799.948 435.134 801.44 435.479 802.948 435.742L803.21 434.281C801.759 434.013 800.323 433.669 798.907 433.251Z" fill="#263238"/>
<path d="M807.594 434.933L807.46 436.411C808.906 436.57 810.435 436.671 812.004 436.727L812.046 435.234C810.51 435.179 809.015 435.079 807.594 434.933Z" fill="#263238"/>
<path d="M766.825 416.126C767.422 416.895 766.825 416.126 768.767 418.298L769.926 419.361L770.968 418.188C769.898 417.263 768.918 416.239 768.042 415.128L766.825 416.126Z" fill="#263238"/>
<path d="M774.433 420.768L773.535 422.084C774.795 422.875 776.102 423.591 777.452 424.229L778.191 422.866C776.897 422.236 775.643 421.536 774.433 420.768Z" fill="#263238"/>
<path d="M782.153 424.615L781.529 426.027C782.856 426.549 784.279 427.036 785.757 427.488L786.296 426.037C784.85 425.594 783.458 425.117 782.153 424.615Z" fill="#263238"/>
<path d="M744.412 397.946C744.916 398.815 745.475 399.651 746.086 400.45L747.108 401.713L748.244 400.748C747.294 399.637 746.443 398.444 745.701 397.185L744.412 397.946Z" fill="#263238"/>
<path d="M751.362 403.936L750.352 405.069C751.5 406.083 752.703 407.032 753.955 407.912L754.815 406.703C753.617 405.841 752.464 404.918 751.362 403.936Z" fill="#263238"/>
<path d="M758.502 409.163L757.75 410.441C758.991 411.202 760.33 411.946 761.726 412.666L762.4 411.333C761.034 410.628 759.725 409.9 758.502 409.163Z" fill="#263238"/>
<path d="M728.91 375.677C729.152 376.653 729.456 377.612 729.819 378.549L730.448 380.047L731.809 379.438C731.206 378.105 730.722 376.723 730.361 375.307L728.91 375.677Z" fill="#263238"/>
<path d="M733.913 383.369L732.627 384.176C733.446 385.469 734.336 386.716 735.293 387.911L736.456 386.99C735.546 385.828 734.697 384.62 733.913 383.369Z" fill="#263238"/>
<path d="M739.311 390.381L738.232 391.399C739.211 392.476 740.289 393.564 741.429 394.644L742.448 393.553C741.333 392.495 740.279 391.43 739.311 390.381Z" fill="#263238"/>
</svg>
