<svg width="91" height="90" viewBox="0 0 91 90" fill="none" xmlns="http://www.w3.org/2000/svg">
<path d="M45.5 0L49.1134 28.5003L64.0065 3.93368L55.7154 31.4397L79.3131 15.0546L60.551 36.8103L88.7731 31.4397L62.7842 43.6834L90.7507 50.256L62.0288 50.8705L84.9042 68.25L58.4155 57.1291L72.2442 82.3103L52.5689 61.3769L54.96 90.0057L45.5 62.8795L36.04 90.0057L38.4311 61.3769L18.7558 82.3103L32.5845 57.1291L6.09584 68.25L28.9712 50.8705L0.249252 50.256L28.2158 43.6834L2.22693 31.4397L30.449 36.8103L11.6869 15.0546L35.2846 31.4397L26.9935 3.93368L41.8866 28.5003L45.5 0Z" fill="#DEA15F"/>
</svg>
